<svg width="100" height="101" viewBox="0 0 100 101" fill="none" xmlns="http://www.w3.org/2000/svg">
<g opacity="0.2">
<circle cx="47.7472" cy="52.0789" r="45.045" fill="#EBBF88"/>
</g>
<circle opacity="0.2" cx="83.7831" cy="18.7455" r="15.3153" fill="url(#paint0_linear)"/>
<circle opacity="0.4" cx="6.75625" cy="70.5473" r="5.85586" fill="url(#paint1_linear)"/>
<path d="M23.4979 45.7725H29.8792C29.4862 45.7725 29.116 45.5912 28.8736 45.2824C28.631 44.9736 28.5468 44.5702 28.6413 44.1873L29.4352 41.0145C29.8615 39.3069 31.3904 38.1148 33.1492 38.1148H41.3658C43.4768 38.1148 45.1947 39.8326 45.1947 41.9436V44.4962C45.1947 45.2007 44.6228 45.7725 43.9183 45.7725H51.576C50.8715 45.7725 50.2997 45.2007 50.2997 44.4962V41.9436C50.2997 39.8326 52.0175 38.1148 54.1285 38.1148H62.3452C64.1039 38.1148 65.6328 39.3069 66.0591 41.0145L66.853 44.1873C66.9501 44.5677 66.8632 44.9736 66.6208 45.2824C66.3783 45.5912 66.0082 45.7725 65.6151 45.7725H71.9965C72.701 45.7725 73.2728 45.2007 73.2728 44.4962V36.8385C73.2728 33.3211 70.4088 30.4572 66.8914 30.4572H28.603C25.0856 30.4572 22.2217 33.3211 22.2217 36.8385V44.4962C22.2217 45.2007 22.7934 45.7725 23.4979 45.7725Z" fill="#F39F2D"/>
<path d="M23.4979 45.7725H29.8792C29.4862 45.7725 29.116 45.5912 28.8736 45.2824C28.631 44.9736 28.5468 44.5702 28.6413 44.1873L29.4352 41.0145C29.8615 39.3069 31.3904 38.1148 33.1492 38.1148H41.3658C43.4768 38.1148 45.1947 39.8326 45.1947 41.9436V44.4962C45.1947 45.2007 44.6228 45.7725 43.9183 45.7725H51.576C50.8715 45.7725 50.2997 45.2007 50.2997 44.4962V41.9436C50.2997 39.8326 52.0175 38.1148 54.1285 38.1148H62.3452C64.1039 38.1148 65.6328 39.3069 66.0591 41.0145L66.853 44.1873C66.9501 44.5677 66.8632 44.9736 66.6208 45.2824C66.3783 45.5912 66.0082 45.7725 65.6151 45.7725H71.9965C72.701 45.7725 73.2728 45.2007 73.2728 44.4962V36.8385C73.2728 33.3211 70.4088 30.4572 66.8914 30.4572H28.603C25.0856 30.4572 22.2217 33.3211 22.2217 36.8385V44.4962C22.2217 45.2007 22.7934 45.7725 23.4979 45.7725Z" fill="url(#paint2_linear)"/>
<path d="M71.9971 48.325H23.4985C19.9812 48.325 17.1172 51.1889 17.1172 54.7063V72.5741C17.1172 73.2786 17.689 73.8504 18.3935 73.8504C19.098 73.8504 19.6698 73.2786 19.6698 72.5741V68.7453H75.8259V72.5741C75.8259 73.2786 76.3978 73.8504 77.1023 73.8504C77.8068 73.8504 78.3786 73.2786 78.3786 72.5741V54.7063C78.3784 51.1889 75.5145 48.325 71.9971 48.325ZM75.8259 66.1928H19.6697V63.6403H75.8258V66.1928H75.8259Z" fill="#F39F2D"/>
<path d="M71.9971 48.325H23.4985C19.9812 48.325 17.1172 51.1889 17.1172 54.7063V72.5741C17.1172 73.2786 17.689 73.8504 18.3935 73.8504C19.098 73.8504 19.6698 73.2786 19.6698 72.5741V68.7453H75.8259V72.5741C75.8259 73.2786 76.3978 73.8504 77.1023 73.8504C77.8068 73.8504 78.3786 73.2786 78.3786 72.5741V54.7063C78.3784 51.1889 75.5145 48.325 71.9971 48.325ZM75.8259 66.1928H19.6697V63.6403H75.8258V66.1928H75.8259Z" fill="url(#paint3_linear)"/>
<defs>
<linearGradient id="paint0_linear" x1="68.4678" y1="34.0608" x2="100.368" y2="32.6762" gradientUnits="userSpaceOnUse">
<stop stop-color="#DBAD44"/>
<stop offset="1" stop-color="#EADAB4"/>
</linearGradient>
<linearGradient id="paint1_linear" x1="0.90039" y1="76.4031" x2="13.0974" y2="75.8737" gradientUnits="userSpaceOnUse">
<stop stop-color="#DBAD44"/>
<stop offset="1" stop-color="#EADAB4"/>
</linearGradient>
<linearGradient id="paint2_linear" x1="91.6245" y1="38.1649" x2="47.5804" y2="38.1649" gradientUnits="userSpaceOnUse">
<stop stop-color="white"/>
<stop offset="1" stop-color="#E8952F"/>
</linearGradient>
<linearGradient id="paint3_linear" x1="100.401" y1="61.1711" x2="47.5477" y2="61.1711" gradientUnits="userSpaceOnUse">
<stop stop-color="white"/>
<stop offset="1" stop-color="#E8952F"/>
</linearGradient>
</defs>
</svg>
