<svg width="100" height="101" viewBox="0 0 100 101" fill="none" xmlns="http://www.w3.org/2000/svg">
<circle opacity="0.2" cx="53.8744" cy="50.7229" r="42.9955" fill="#EBBF88"/>
<g opacity="0.2">
<circle cx="21.1987" cy="29.2252" r="17.1982" fill="#F39F2D"/>
<circle cx="21.1987" cy="29.2252" r="17.1982" fill="url(#paint0_linear)"/>
</g>
<g opacity="0.4">
<circle cx="91.2813" cy="67.4913" r="5.58942" fill="#F39F2D"/>
<circle cx="91.2813" cy="67.4913" r="5.58942" fill="url(#paint1_linear)"/>
</g>
<g clip-path="url(#clip0)">
<path d="M34.2598 53.9773L36.1431 57.744C36.457 58.3717 36.9278 58.6856 37.5556 58.6856H64.2361C64.8639 58.6856 65.3347 58.3717 65.6486 57.744L67.5319 53.9773H34.2598Z" fill="#F39F2D"/>
<path d="M34.2598 53.9773L36.1431 57.744C36.457 58.3717 36.9278 58.6856 37.5556 58.6856H64.2361C64.8639 58.6856 65.3347 58.3717 65.6486 57.744L67.5319 53.9773H34.2598Z" fill="url(#paint2_linear)"/>
<path d="M31.2789 52.4079H33.4761H68.3177H70.5149C71.4566 52.4079 72.0844 51.7802 72.0844 50.8385C72.0844 49.8968 71.4566 49.269 70.5149 49.269H68.9455C68.6316 40.951 62.5108 34.0455 54.6636 32.3191C54.6636 32.0052 54.8205 31.6913 54.8205 31.2205C54.8205 29.0233 53.0941 27.2969 50.8969 27.2969C48.6997 27.2969 46.9733 29.0233 46.9733 31.2205C46.9733 31.6913 47.1303 32.0052 47.1303 32.3191C39.2831 34.0455 33.3192 40.951 32.8484 49.269H31.2789C30.3372 49.269 29.7095 49.8968 29.7095 50.8385C29.7095 51.7802 30.3372 52.4079 31.2789 52.4079Z" fill="#F39F2D"/>
<path d="M31.2789 52.4079H33.4761H68.3177H70.5149C71.4566 52.4079 72.0844 51.7802 72.0844 50.8385C72.0844 49.8968 71.4566 49.269 70.5149 49.269H68.9455C68.6316 40.951 62.5108 34.0455 54.6636 32.3191C54.6636 32.0052 54.8205 31.6913 54.8205 31.2205C54.8205 29.0233 53.0941 27.2969 50.8969 27.2969C48.6997 27.2969 46.9733 29.0233 46.9733 31.2205C46.9733 31.6913 47.1303 32.0052 47.1303 32.3191C39.2831 34.0455 33.3192 40.951 32.8484 49.269H31.2789C30.3372 49.269 29.7095 49.8968 29.7095 50.8385C29.7095 51.7802 30.3372 52.4079 31.2789 52.4079Z" fill="url(#paint3_linear)"/>
<path d="M63.6084 60.726C63.4515 60.4121 62.9806 60.2551 62.6668 60.2551C62.039 60.2551 61.5681 60.2551 60.9404 60.4121L59.214 62.7662C57.4876 65.1204 54.6626 66.5329 51.6807 66.5329H51.2098H50.1112H48.071H46.9723C46.0307 66.5329 45.4029 65.9051 45.4029 64.9634C45.4029 64.0218 46.0307 63.394 46.9723 63.394H52.4654C52.9362 62.9232 53.2501 62.1385 53.2501 61.3537V61.1968C53.2501 60.569 52.7793 60.2551 52.1515 60.2551H45.8737C42.1071 60.2551 39.1251 61.9815 37.3988 64.6496L34.5738 69.044C34.4168 69.3579 34.4168 69.8287 34.5738 70.1426L37.7126 75.3218C37.8696 75.6356 38.0265 75.7926 38.3404 75.7926H38.4974C38.6543 75.7926 38.9682 75.7926 39.1251 75.6356C43.0487 72.9676 47.7571 71.5551 52.4654 71.5551C55.9182 71.5551 59.057 69.6718 60.6265 66.6898L63.4515 61.6676C63.7654 61.5107 63.7654 61.0398 63.6084 60.726Z" fill="#F39F2D"/>
<path d="M63.6084 60.726C63.4515 60.4121 62.9806 60.2551 62.6668 60.2551C62.039 60.2551 61.5681 60.2551 60.9404 60.4121L59.214 62.7662C57.4876 65.1204 54.6626 66.5329 51.6807 66.5329H51.2098H50.1112H48.071H46.9723C46.0307 66.5329 45.4029 65.9051 45.4029 64.9634C45.4029 64.0218 46.0307 63.394 46.9723 63.394H52.4654C52.9362 62.9232 53.2501 62.1385 53.2501 61.3537V61.1968C53.2501 60.569 52.7793 60.2551 52.1515 60.2551H45.8737C42.1071 60.2551 39.1251 61.9815 37.3988 64.6496L34.5738 69.044C34.4168 69.3579 34.4168 69.8287 34.5738 70.1426L37.7126 75.3218C37.8696 75.6356 38.0265 75.7926 38.3404 75.7926H38.4974C38.6543 75.7926 38.9682 75.7926 39.1251 75.6356C43.0487 72.9676 47.7571 71.5551 52.4654 71.5551C55.9182 71.5551 59.057 69.6718 60.6265 66.6898L63.4515 61.6676C63.7654 61.5107 63.7654 61.0398 63.6084 60.726Z" fill="url(#paint4_linear)"/>
</g>
<defs>
<linearGradient id="paint0_linear" x1="50.7616" y1="29.3376" x2="21.0863" y2="29.3376" gradientUnits="userSpaceOnUse">
<stop stop-color="white"/>
<stop offset="1" stop-color="#E8952F"/>
</linearGradient>
<linearGradient id="paint1_linear" x1="100.889" y1="67.5278" x2="91.2448" y2="67.5278" gradientUnits="userSpaceOnUse">
<stop stop-color="white"/>
<stop offset="1" stop-color="#E8952F"/>
</linearGradient>
<linearGradient id="paint2_linear" x1="79.4925" y1="56.3468" x2="50.7871" y2="56.3468" gradientUnits="userSpaceOnUse">
<stop stop-color="white"/>
<stop offset="1" stop-color="#E8952F"/>
</linearGradient>
<linearGradient id="paint3_linear" x1="87.3172" y1="39.9345" x2="50.7584" y2="39.9345" gradientUnits="userSpaceOnUse">
<stop stop-color="white"/>
<stop offset="1" stop-color="#E8952F"/>
</linearGradient>
<linearGradient id="paint4_linear" x1="74.2282" y1="68.0746" x2="48.9882" y2="68.0746" gradientUnits="userSpaceOnUse">
<stop stop-color="white"/>
<stop offset="1" stop-color="#E8952F"/>
</linearGradient>
<clipPath id="clip0">
<rect width="50.2221" height="50.2221" fill="white" transform="translate(25.0005 25.7274)"/>
</clipPath>
</defs>
</svg>
