<svg xmlns="http://www.w3.org/2000/svg" width="152" height="100" viewBox="0 0 152 100">
    <defs>
        <filter id="Rectangle_1485" x="0" y="0" width="152" height="100" filterUnits="userSpaceOnUse">
            <feOffset dy="3"/>
            <feGaussianBlur stdDeviation="3" result="blur"/>
            <feFlood flood-opacity=".161"/>
            <feComposite operator="in" in2="blur"/>
            <feComposite in="SourceGraphic"/>
        </filter>
        <style>
            .cls-2{fill:#ff7f30}.cls-3{fill:#00b29a}.cls-5{fill:#ffc096}.cls-7{fill:#87d5c5}
        </style>
    </defs>
    <g id="Group_8421" data-name="Group 8421" transform="translate(-419.516 6)">
        <g id="Vinpearl_Web_Logos-10" data-name="Vinpearl Web Logos-10" transform="translate(452.521 -5.175)">
            <path id="Path_11723" data-name="Path 11723" class="cls-2" d="M7.514 74.471v.229l-.26.156a.329.329 0 0 0-.113.087 2.9 2.9 0 0 0 0 .321v.693a8.563 8.563 0 0 0 .059 1.01v.052a8.052 8.052 0 0 1-2.947.563 4.88 4.88 0 0 1-2.106-.451A3.467 3.467 0 0 1 .554 75.8 3.822 3.822 0 0 1 0 73.7a3.727 3.727 0 0 1 1.239-2.938 4.707 4.707 0 0 1 3.233-1.092 6.6 6.6 0 0 1 2.644.511v.061a11.649 11.649 0 0 0-.182 1.5h-.286v-.563a2.115 2.115 0 0 0 0-.329.624.624 0 0 0-.113-.121 2.435 2.435 0 0 0-.485-.251 3.849 3.849 0 0 0-.78-.243 4.421 4.421 0 0 0-.867-.078 3.467 3.467 0 0 0-1.734.407A2.6 2.6 0 0 0 1.56 71.75a3.874 3.874 0 0 0-.373 1.734 4.247 4.247 0 0 0 .4 1.838 3.068 3.068 0 0 0 1.161 1.317 3.172 3.172 0 0 0 1.734.477 4.516 4.516 0 0 0 .867-.087 2.5 2.5 0 0 0 .719-.269 2.982 2.982 0 0 0 .043-.685v-.6a1.482 1.482 0 0 0-.052-.52c0-.078-.121-.121-.26-.156a6.772 6.772 0 0 0-.867-.052v-.286h2.53z" transform="translate(0 -6.46)"/>
            <path id="Path_11724" data-name="Path 11724" class="cls-2" d="M9.32 69.89c.641 0 1.135.043 1.491.043h2.141a2.47 2.47 0 0 1 1.794.494 1.656 1.656 0 0 1 .477 1.17 1.82 1.82 0 0 1-.234.867 2.071 2.071 0 0 1-.685.745 3.259 3.259 0 0 1-1.239.459l.529.728.745 1.005.771 1.049a3.129 3.129 0 0 0 .537.624.511.511 0 0 0 .208.087 1.153 1.153 0 0 0 .277 0l.043.043v.251l-.052.052a3.97 3.97 0 0 0-.6 0h-.815c-.234-.3-.615-.867-1.135-1.56a28.152 28.152 0 0 0-1.846-2.375l.052-.173h.425a2.1 2.1 0 0 0 1.422-.442 1.526 1.526 0 0 0 .52-1.231 1.265 1.265 0 0 0-.468-1.066 1.942 1.942 0 0 0-1.17-.407 3.337 3.337 0 0 0-1.031.156 11.121 11.121 0 0 0-.078 2.011v4.3a.52.52 0 0 0 .078.234.381.381 0 0 0 .191.1 3.563 3.563 0 0 0 .693.061h.043v.269l-.043.043h-1.5l-1.5.043v-.312a3.962 3.962 0 0 0 .65-.052.477.477 0 0 0 .217-.078.52.52 0 0 0 .087-.217 5.14 5.14 0 0 0 0-.745v-4.694a6.934 6.934 0 0 0 0-.78.52.52 0 0 0-.078-.243.425.425 0 0 0-.191-.1 5.15 5.15 0 0 0-.693-.052z" transform="translate(-1.242 -6.49)"/>
            <path id="Path_11725" data-name="Path 11725" class="cls-2" d="M19.986 74.441h2.652l-1.318-3.225zm-2.392 3-.044-.041v-.277h.043a1.775 1.775 0 0 0 .494 0 .381.381 0 0 0 .2-.217 4.994 4.994 0 0 0 .347-.676L19.18 75l1.43-3.3c.269-.65.537-1.291.8-1.942h.347l2.254 5.409.295.719c.1.2.191.425.3.659a1.985 1.985 0 0 0 .234.425.39.39 0 0 0 .165.1 1.43 1.43 0 0 0 .433 0h.043v.277l-.043.043c-.373 0-.7-.052-1-.052l-1.734.052v-.321a4.231 4.231 0 0 0 .728-.052.173.173 0 0 0 .147-.182.867.867 0 0 0-.069-.312l-.641-1.63H19.8l-.563 1.37a1.586 1.586 0 0 0-.156.537.208.208 0 0 0 .139.2 2.271 2.271 0 0 0 .719.069h.043v.277l-.043.043c-.451 0-.867-.043-1.179-.043a11.282 11.282 0 0 0-1.17.043" transform="translate(-2.339 -6.473)"/>
            <path id="Path_11726" data-name="Path 11726" class="cls-2" d="M27.354 77.458H27.3v-.251h.052a2.773 2.773 0 0 0 .511 0 .338.338 0 0 0 .243-.1.494.494 0 0 0 .078-.243v-6a.719.719 0 0 0-.1-.407.459.459 0 0 0-.269-.165 3.622 3.622 0 0 0-.572 0v-.295h1.82l1.673 2.21 2.464 3.144c.295.381.6.745.867 1.083v-5.113a7.8 7.8 0 0 0-.043-.8.321.321 0 0 0-.061-.182.407.407 0 0 0-.243-.087 3.415 3.415 0 0 0-.485 0l-.043-.043v-.249h2.34v.251l-.043.043a3.8 3.8 0 0 0-.529 0 .373.373 0 0 0-.243.121.641.641 0 0 0-.061.234v7.064a7.731 7.731 0 0 0-.867-.225L33.421 77l-1.187-1.413-3.554-4.535v5.01a2.993 2.993 0 0 0 .043.771.468.468 0 0 0 .069.182.347.347 0 0 0 .182.1 2.6 2.6 0 0 0 .572 0h.043v.251h-.043a7.152 7.152 0 0 0-.867 0h-1.368" transform="translate(-3.631 -6.5)"/>
            <path id="Path_11727" data-name="Path 11727" class="cls-2" d="M39.378 76.913a6.46 6.46 0 0 0 1.231.1 3.927 3.927 0 0 0 1.95-.416 2.514 2.514 0 0 0 1.092-1.24 4.49 4.49 0 0 0 .338-1.916 2.869 2.869 0 0 0-3.285-3.19 7.629 7.629 0 0 0-1.352.113v6.466m-1.942-6.982h.043l1.239.043 2.453-.052a6.258 6.258 0 0 1 1.734.2 2.973 2.973 0 0 1 1.2.693 3.38 3.38 0 0 1 .78 1.153 3.571 3.571 0 0 1 .269 1.4 4.273 4.273 0 0 1-.243 1.43 4.2 4.2 0 0 1-.7 1.265 3.883 3.883 0 0 1-1.031.867 3.814 3.814 0 0 1-1.161.459 6.8 6.8 0 0 1-1.187.113h-2.018a6.479 6.479 0 0 0-.867.043v-.277a2.9 2.9 0 0 0 .355-.2 4.585 4.585 0 0 0 .052-.936v-5.195a2.289 2.289 0 0 0 0-.355.581.581 0 0 0-.061-.156.277.277 0 0 0-.113-.069l-.26-.052h-.442z" transform="translate(-4.985 -6.483)"/>
            <path id="Path_11728" data-name="Path 11728" class="cls-3" d="m50.56 76.96-.711-3.328-1.508-6.579c-.121-.52-.251-.815-.381-.867a3.3 3.3 0 0 0-.867-.173l-.043-.1v-.355l.069-.069c.745 0 1.413.061 1.994.061.433 0 1.066 0 1.9-.061l.069.069v.355l-.061.061a6 6 0 0 0-1.049.087.251.251 0 0 0-.173.269 10.452 10.452 0 0 0 .156 1.057c.1.589.2 1.075.277 1.448l1.231 5.539 1.937-4.912c.5-1.3 1.005-2.661 1.491-4.082h.5c.416 1.335.867 2.6 1.291 3.892l1.846 5.2 1.326-4.767c.139-.5.3-1.161.5-1.976a11.165 11.165 0 0 0 .295-1.413.243.243 0 0 0-.191-.269 7.516 7.516 0 0 0-1.127-.078l-.069-.052v-.355l.069-.061c.867 0 1.422.061 1.6.061s.711 0 1.63-.061l.061.061v.355l-.061.052a1.881 1.881 0 0 0-.6.087.728.728 0 0 0-.26.208 3.511 3.511 0 0 0-.312.815l-.451 1.491-.806 2.7c-.121.39-.329 1.17-.633 2.366l-.867 3.3h-.806a186.951 186.951 0 0 0-1.343-3.961L54.7 68.041l-1.552 3.944-.867 2.236c-.225.589-.4 1.075-.529 1.448l-.416 1.291z" transform="translate(-6.269 -5.889)"/>
            <path id="Path_11729" data-name="Path 11729" class="cls-3" d="M66.729 73.346a5.3 5.3 0 0 0 .208 1.4 3.736 3.736 0 0 0 .624 1.274 2.644 2.644 0 0 0 .945.8 2.808 2.808 0 0 0 1.222.26 2.7 2.7 0 0 0 1.422-.364 2.375 2.375 0 0 0 .971-1.179 4.7 4.7 0 0 0 .329-1.794 4.862 4.862 0 0 0-.381-1.95 2.531 2.531 0 0 0-1.075-1.265 3.008 3.008 0 0 0-1.543-.4 2.6 2.6 0 0 0-2.011.815 3.467 3.467 0 0 0-.737 2.4m-1.083.357a4.689 4.689 0 0 1 .225-1.5 3.467 3.467 0 0 1 .763-1.283A3.693 3.693 0 0 1 67.917 70a4.412 4.412 0 0 1 1.734-.321 4 4 0 0 1 2.843.988 3.536 3.536 0 0 1 1.083 2.756 4.473 4.473 0 0 1-.52 2.167 3.684 3.684 0 0 1-1.482 1.5 4.447 4.447 0 0 1-2.158.494 4.048 4.048 0 0 1-1.569-.295 3.216 3.216 0 0 1-1.222-.867 3.666 3.666 0 0 1-.737-1.335 4.75 4.75 0 0 1-.225-1.387" transform="translate(-8.743 -6.462)"/>
            <path id="Path_11730" data-name="Path 11730" class="cls-3" d="M75.349 69.89c.641 0 1.144.043 1.5.043h2.131a2.479 2.479 0 0 1 1.8.494 1.647 1.647 0 0 1 .468 1.17 1.8 1.8 0 0 1-.225.867 2.071 2.071 0 0 1-.685.745 3.259 3.259 0 0 1-1.239.459l.529.728.745 1.005.771 1.049a3.129 3.129 0 0 0 .537.624.511.511 0 0 0 .208.087 1.153 1.153 0 0 0 .277 0v.295l-.052.052a3.97 3.97 0 0 0-.6 0h-.815c-.234-.3-.615-.867-1.135-1.56a28.152 28.152 0 0 0-1.846-2.375l.052-.173h.43a2.1 2.1 0 0 0 1.421-.442 1.517 1.517 0 0 0 .624-1.239 1.265 1.265 0 0 0-.459-1.066 1.942 1.942 0 0 0-1.274-.4 3.337 3.337 0 0 0-1.031.156 9.762 9.762 0 0 0-.087 2.011v4.3a.684.684 0 0 0 .069.234.468.468 0 0 0 .2.1 3.468 3.468 0 0 0 .693.061v.312h-1.508l-1.5.043v-.312A3.762 3.762 0 0 0 76 77.1a.477.477 0 0 0 .225-.078.52.52 0 0 0 .087-.217 4.419 4.419 0 0 0 0-.745v-5.468a.52.52 0 0 0-.078-.243.425.425 0 0 0-.191-.1 5.2 5.2 0 0 0-.7-.052z" transform="translate(-10.038 -6.49)"/>
            <path id="Path_11731" data-name="Path 11731" class="cls-3" d="m83.59 69.89 1.5.043 1.5-.043h.043v.269h-.6a.659.659 0 0 0-.286.087.355.355 0 0 0-.121.269 5.453 5.453 0 0 0 0 .607v4.828l.052.971h2.662a2.471 2.471 0 0 0 .615-.156 5.082 5.082 0 0 0 .165-.615c.069-.321.113-.511.113-.555h.26c0 .139-.052.416-.087.867a9.345 9.345 0 0 0 0 1v.038h-4.16a8.915 8.915 0 0 0-1.066.043v-.277a2.254 2.254 0 0 0 .355-.208 3.536 3.536 0 0 0 .061-.685v-5a6.933 6.933 0 0 0 0-.78.52.52 0 0 0-.078-.243.425.425 0 0 0-.191-.1 5.15 5.15 0 0 0-.693-.052z" transform="translate(-11.137 -6.49)"/>
            <path id="Path_11732" data-name="Path 11732" class="cls-3" d="M93.052 76.913a6.458 6.458 0 0 0 1.231.1 3.926 3.926 0 0 0 1.933-.459 2.548 2.548 0 0 0 1.092-1.239 4.49 4.49 0 0 0 .381-1.872 2.869 2.869 0 0 0-3.285-3.19 7.628 7.628 0 0 0-1.352.113v6.466m-1.942-6.984 1.239.043 2.451-.051a6.3 6.3 0 0 1 1.734.2 2.973 2.973 0 0 1 1.2.693 3.38 3.38 0 0 1 .789 1.153 3.571 3.571 0 0 1 .269 1.4 4.274 4.274 0 0 1-.243 1.43 4.2 4.2 0 0 1-.7 1.265 3.883 3.883 0 0 1-1.031.867 3.814 3.814 0 0 1-1.161.459 6.8 6.8 0 0 1-1.187.113h-2.043a6.413 6.413 0 0 0-.867.043l-.043-.043v-.173l.043-.061a2.9 2.9 0 0 0 .355-.2 4.584 4.584 0 0 0 .085-.94V70.5a.58.58 0 0 0-.061-.156.277.277 0 0 0-.113-.069l-.26-.052h-.4z" transform="translate(-12.139 -6.483)"/>
            <path id="Path_11733" data-name="Path 11733" class="cls-2" d="M48.615 53c.641-5.409-4.733-9.621-8.217-10.219-1.413-.243-2.176 1.578-1.621 2.228.139-.061.3-.061.433-.121 2.557-1.213 6.631 3.554 4.993 6.769-.641 3.389-3.025 5.27-5.833 6.284a15.9 15.9 0 0 0 3.545.269c4.285-.144 6.328-2.094 6.7-5.21z" transform="translate(-5.113 -2.875)"/>
            <path id="Path_11734" data-name="Path 11734" d="M42.2 51.721a1.733 1.733 0 0 1-.13.251c-2.262 3.658-7.706 2.21-10.4.5A15.034 15.034 0 0 1 23.3 43.4a16.408 16.408 0 0 0 13 14.605c2.871-.997 5.254-2.878 5.9-6.284z" transform="translate(-3.105 -2.961)" style="fill:#ff9a5a"/>
            <path id="Path_11735" data-name="Path 11735" class="cls-2" d="m31.7 50.2-.485-.338a14.076 14.076 0 0 1-3.926-17.6c1.309-2.314 2.644-3.4 3.354-4.585a1.179 1.179 0 0 0-.173-1.491s-.555.347-1.014.7a16.841 16.841 0 0 0-6.126 11.472 14.735 14.735 0 0 0 0 2.765A15.075 15.075 0 0 0 31.7 50.2z" transform="translate(-3.1 -.667)"/>
            <path id="Path_11736" data-name="Path 11736" class="cls-5" d="M49.036 49.554c-.459-2.765-2.072-4.334-4.143-5.981a7.4 7.4 0 0 0-5.593-1.838 1.89 1.89 0 0 0-1.61 2.375c.156 1.222.988.754.988.754-.555-.65.208-2.47 1.621-2.228 3.467.6 8.858 4.811 8.217 10.219a5.617 5.617 0 0 1-1.448 3.311c1.95-1.733 2.432-3.856 1.968-6.612z" transform="translate(-5.013 -2.735)"/>
            <path id="Path_11737" data-name="Path 11737" class="cls-5" d="M31.024 27.667c-.711 1.187-2.046 2.271-3.354 4.585a14.076 14.076 0 0 0 3.926 17.6l.485.338c2.652 1.734 8.1 3.155 10.4-.5a1.733 1.733 0 0 0 .087-.269c-2.089 1.508-6.067 1.257-9.708-.737-4.689-2.54-6.284-8.737-4.906-13.946 1.343-5.062 3.987-5.981 3.987-7.359s-1.092-1.222-1.092-1.222a1.179 1.179 0 0 1 .175 1.51z" transform="translate(-3.478 -.663)"/>
            <path id="Path_11738" data-name="Path 11738" class="cls-3" d="M72.063 32s-.546.182 0 1.578c1.109 2.834 1.482 6.561-.269 11.641a11.415 11.415 0 0 1-4.2 5.677 10.843 10.843 0 0 0 4.538-2.196 16.677 16.677 0 0 0 2.02-6.2c.277-2.569.095-8.082-2.089-10.5z" transform="translate(-9.006 -1.442)"/>
            <path id="Path_11739" data-name="Path 11739" class="cls-3" d="M57.731 44.711c-.407 1.049-1.023 1.942-1.369.546-1.2-4.767-5.2-8.13-6.128-12.438-.823-3.736.745-6.327 1.985-7a3.866 3.866 0 0 1 2.306-.529 2.176 2.176 0 0 0-1.846-2.6c-2.271-.347-4.551 2.808-5.253 4.733S46.559 34.6 49.7 39.5s4.23 8.087 3.363 11.649a12.973 12.973 0 0 0-.676 3.736 20.116 20.116 0 0 0 5.344-10.174z" transform="translate(-6.263 -.198)"/>
            <path id="Path_11740" data-name="Path 11740" d="M64.535 52.058c-1.309-.26-.087-2.973-.7-7.177s-1.924-7.359-3.675-6.483-.234 2.8-1.283 7.359a7.653 7.653 0 0 1-.321 1.031 19.925 19.925 0 0 1-5.376 10.176c.078.451.381.607 1.023.468 1.578-.355 5.079-5.547 6.128-8.876s1.578-1.924 1.578-.529a71.689 71.689 0 0 1-1.578 8.061c-.355 1.578.633 2.271 4.022 0a19.069 19.069 0 0 0 5.868-6.553 10.843 10.843 0 0 1-4.542 2.193 1.812 1.812 0 0 1-1.144.33z" transform="translate(-7.086 -2.275)" style="fill:#4ec4af"/>
            <path id="Path_11741" data-name="Path 11741" class="cls-7" d="M74.619 37.833C73.475 32 71.438 32 71.438 32c2.184 2.453 2.366 7.966 2.1 10.505a14.529 14.529 0 0 1-.711 3.207v.121a18.2 18.2 0 0 1-1.268 2.867 19.069 19.069 0 0 1-5.868 6.553 8.936 8.936 0 0 1-2.791 1.424c2.392 0 5.417-2 7.8-4.481a17.933 17.933 0 0 0 3.919-14.363z" transform="translate(-8.381 -1.442)"/>
            <path id="Path_11742" data-name="Path 11742" class="cls-7" d="M64.84 44.811c.615 4.2-.607 6.934.7 7.177a1.812 1.812 0 0 0 1.144-.364c-.13 0-.78 0-.711-1.517.13-2.6 0-8.806-1.855-11.181-1.179-1.526-2.514-1.552-3.38-.312a2 2 0 0 1 .4-.269c1.778-.892 3.078 2.167 3.702 6.466z" transform="translate(-8.093 -2.206)"/>
            <path id="Path_11743" data-name="Path 11743" class="cls-7" d="M54.983 25.277a3.866 3.866 0 0 0-2.323.529c-1.239.676-2.808 3.268-1.985 7 .936 4.334 4.932 7.671 6.128 12.438.338 1.352.927.555 1.326-.451-.26-2.375-1.369-3.129-4-7.333-2.3-3.675-2.7-5.755-2.5-7.472s1.023-4.187 4.811-3.346c.459-2.072-1.378-4.473-3.311-4a2.176 2.176 0 0 1 1.846 2.626z" transform="translate(-6.721 -.188)"/>
            <path id="Path_11744" data-name="Path 11744" d="M45.143 21.2a6.934 6.934 0 0 0-3.328 3.961 13.652 13.652 0 0 0-.347 7.073 36.4 36.4 0 0 0 1.413 4.958 9.318 9.318 0 0 0-2.228-.676c-1.916-.459-4.334-.546-5.5 1.343-.173-4.074 4.134-4.134 4.134-4.134a23.689 23.689 0 0 1-.8-4.655c-.087-2.843 1.022-6.778 6.656-7.87z" transform="translate(-4.683 -.003)" style="fill-rule:evenodd;fill:#ff9a5a"/>
            <path id="Path_11745" data-name="Path 11745" d="M47.6 21.387a3.25 3.25 0 0 0-1.534-.191l-.919.572a7.593 7.593 0 0 0-2.41 3.389 13.652 13.652 0 0 0-.347 7.073 36.4 36.4 0 0 0 1.413 4.958 2.375 2.375 0 0 0-.581-.225l1.976.867s-.546-1.465-1.153-3.623a19.6 19.6 0 0 1-.806-5.686 7.541 7.541 0 0 1 4.36-7.134z" transform="translate(-5.607)" style="fill-rule:evenodd;fill:#ffc096"/>
        </g>
    </g>
</svg>
