<svg width="100" height="101" viewBox="0 0 100 101" fill="none" xmlns="http://www.w3.org/2000/svg">
<circle opacity="0.2" cx="51.3507" cy="50.277" r="45.045" fill="#EBBF88"/>
<g opacity="0.2">
<circle cx="20.7202" cy="78.2049" r="18.018" fill="#F39F2D"/>
<circle cx="20.7202" cy="78.2049" r="18.018" fill="url(#paint0_linear)"/>
</g>
<g opacity="0.4">
<circle cx="76.1254" cy="12.8895" r="5.85586" fill="#F39F2D"/>
<circle cx="76.1254" cy="12.8895" r="5.85586" fill="url(#paint1_linear)"/>
</g>
<path d="M45.1157 39.1647C44.6673 39.3698 44.2422 39.5804 43.8398 39.7941L47.2759 47.3055C47.5057 46.5041 47.914 45.7644 48.4675 45.145C47.4667 44.2465 46.7247 43.0506 46.3842 41.6662C46.1372 40.6622 46.1188 39.638 46.3196 38.6541C45.9193 38.8116 45.5173 38.9811 45.1157 39.1647Z" fill="#F39F2D"/>
<path d="M45.1157 39.1647C44.6673 39.3698 44.2422 39.5804 43.8398 39.7941L47.2759 47.3055C47.5057 46.5041 47.914 45.7644 48.4675 45.145C47.4667 44.2465 46.7247 43.0506 46.3842 41.6662C46.1372 40.6622 46.1188 39.638 46.3196 38.6541C45.9193 38.8116 45.5173 38.9811 45.1157 39.1647Z" fill="url(#paint2_linear)"/>
<path d="M81.2998 66.6917H80.5841C80.4997 67.1215 80.3989 67.6845 80.2031 68.1C78.8454 70.9806 76.0275 71.3152 73.6111 70.0874C72.8129 69.6816 67.7542 67.1101 66.9311 66.6917H51.2595L46.9901 49.2072C46.8036 48.4456 46.0276 47.9862 45.2708 48.1871L40.9313 49.3396C40.1949 49.5352 39.75 50.284 39.9304 51.0242C41.8535 58.9365 44.9798 71.9064 44.9798 71.9064H33.7037C32.8594 71.9064 32.1748 72.5909 32.1748 73.4353V74.008C32.1748 74.8524 32.8594 75.537 33.7037 75.537H35.527V78.3425C35.527 78.764 35.8687 79.1057 36.2902 79.1057H38.7175C39.139 79.1057 39.4807 78.764 39.4807 78.3425V75.537H75.7223V78.3425C75.7223 78.764 76.0641 79.1057 76.4855 79.1057H78.9129C79.3344 79.1057 79.6761 78.764 79.6761 78.3425V75.537H81.7581C82.4302 75.537 83.0358 75.0088 83.0358 74.201L82.6343 68.0259C82.6341 67.289 82.0368 66.6917 81.2998 66.6917Z" fill="#F39F2D"/>
<path d="M81.2998 66.6917H80.5841C80.4997 67.1215 80.3989 67.6845 80.2031 68.1C78.8454 70.9806 76.0275 71.3152 73.6111 70.0874C72.8129 69.6816 67.7542 67.1101 66.9311 66.6917H51.2595L46.9901 49.2072C46.8036 48.4456 46.0276 47.9862 45.2708 48.1871L40.9313 49.3396C40.1949 49.5352 39.75 50.284 39.9304 51.0242C41.8535 58.9365 44.9798 71.9064 44.9798 71.9064H33.7037C32.8594 71.9064 32.1748 72.5909 32.1748 73.4353V74.008C32.1748 74.8524 32.8594 75.537 33.7037 75.537H35.527V78.3425C35.527 78.764 35.8687 79.1057 36.2902 79.1057H38.7175C39.139 79.1057 39.4807 78.764 39.4807 78.3425V75.537H75.7223V78.3425C75.7223 78.764 76.0641 79.1057 76.4855 79.1057H78.9129C79.3344 79.1057 79.6761 78.764 79.6761 78.3425V75.537H81.7581C82.4302 75.537 83.0358 75.0088 83.0358 74.201L82.6343 68.0259C82.6341 67.289 82.0368 66.6917 81.2998 66.6917Z" fill="url(#paint3_linear)"/>
<path d="M66.7681 52.7281C68.0107 53.345 68.8748 54.6225 68.8889 56.0959C68.8941 56.6383 68.7813 57.161 68.5746 57.6382L69.1568 58.4259C69.1568 58.4259 78.4032 62.9941 78.5648 63.0831C78.5648 63.0831 76.2077 59.7426 71.0424 52.679C70.2522 51.6095 68.7563 51.3593 67.6608 52.1132L66.7681 52.7281Z" fill="#F39F2D"/>
<path d="M66.7681 52.7281C68.0107 53.345 68.8748 54.6225 68.8889 56.0959C68.8941 56.6383 68.7813 57.161 68.5746 57.6382L69.1568 58.4259C69.1568 58.4259 78.4032 62.9941 78.5648 63.0831C78.5648 63.0831 76.2077 59.7426 71.0424 52.679C70.2522 51.6095 68.7563 51.3593 67.6608 52.1132L66.7681 52.7281Z" fill="url(#paint4_linear)"/>
<path d="M50.772 43.6155C50.7723 43.6153 50.7724 43.6153 50.7727 43.6152C51.7196 44.2182 52.9013 44.4492 54.0775 44.16C55.2101 43.8815 56.166 43.1621 56.7493 42.1505C57.2763 41.2364 57.4617 40.1438 57.2063 39.0536C56.9738 38.0608 56.3995 37.1954 55.5909 36.5991C54.986 37.1671 54.1849 37.4907 53.3286 37.4907C52.8293 37.4907 52.7319 37.3919 51.9512 37.3919C51.217 37.3919 50.389 37.4916 49.5068 37.6786C48.9629 38.5029 48.7336 39.4614 48.8177 40.4C48.9332 41.6863 49.6266 42.8863 50.772 43.6155Z" fill="#F39F2D"/>
<path d="M50.772 43.6155C50.7723 43.6153 50.7724 43.6153 50.7727 43.6152C51.7196 44.2182 52.9013 44.4492 54.0775 44.16C55.2101 43.8815 56.166 43.1621 56.7493 42.1505C57.2763 41.2364 57.4617 40.1438 57.2063 39.0536C56.9738 38.0608 56.3995 37.1954 55.5909 36.5991C54.986 37.1671 54.1849 37.4907 53.3286 37.4907C52.8293 37.4907 52.7319 37.3919 51.9512 37.3919C51.217 37.3919 50.389 37.4916 49.5068 37.6786C48.9629 38.5029 48.7336 39.4614 48.8177 40.4C48.9332 41.6863 49.6266 42.8863 50.772 43.6155Z" fill="url(#paint5_linear)"/>
<path d="M53.3116 63.1576L53.3153 63.1528C53.6115 64.1845 54.5389 64.8853 55.6622 64.8853C55.6698 64.8853 55.6774 64.8855 55.685 64.8853H67.334L75.0987 68.7675C76.3155 69.3858 77.7985 68.8981 78.4144 67.6867C79.0316 66.4726 78.5477 64.9883 77.3337 64.3712L69.0526 60.1617C68.7061 59.9854 68.3228 59.8938 67.9343 59.8938C67.9272 59.8938 67.9199 59.8938 67.9126 59.8938C67.9126 59.8938 57.4055 59.8936 57.349 59.8938C55.5768 59.8938 54.3233 58.7831 54.008 57.959C53.706 57.1696 51.5219 51.4616 51.1766 50.5595L55.7454 57.2942C55.7491 57.2997 55.7532 57.3048 55.7571 57.3103C56.1095 57.8181 56.6914 58.0701 57.3675 58.0701H65.109C66.2446 58.0594 67.1436 57.0639 67.0162 55.9165C66.9097 54.9505 66.0826 54.1857 65.0719 54.1948L58.3694 54.2589L54.232 48.1601L59.0614 52.392L61.6772 52.3669L60.3323 46.8981C59.9529 45.3553 58.3947 44.4119 56.8514 44.7915L51.8693 46.0167C50.3263 46.3962 49.3831 47.9547 49.7627 49.4976C49.7628 49.4973 52.9616 61.7348 53.3116 63.1576Z" fill="#F39F2D"/>
<path d="M53.3116 63.1576L53.3153 63.1528C53.6115 64.1845 54.5389 64.8853 55.6622 64.8853C55.6698 64.8853 55.6774 64.8855 55.685 64.8853H67.334L75.0987 68.7675C76.3155 69.3858 77.7985 68.8981 78.4144 67.6867C79.0316 66.4726 78.5477 64.9883 77.3337 64.3712L69.0526 60.1617C68.7061 59.9854 68.3228 59.8938 67.9343 59.8938C67.9272 59.8938 67.9199 59.8938 67.9126 59.8938C67.9126 59.8938 57.4055 59.8936 57.349 59.8938C55.5768 59.8938 54.3233 58.7831 54.008 57.959C53.706 57.1696 51.5219 51.4616 51.1766 50.5595L55.7454 57.2942C55.7491 57.2997 55.7532 57.3048 55.7571 57.3103C56.1095 57.8181 56.6914 58.0701 57.3675 58.0701H65.109C66.2446 58.0594 67.1436 57.0639 67.0162 55.9165C66.9097 54.9505 66.0826 54.1857 65.0719 54.1948L58.3694 54.2589L54.232 48.1601L59.0614 52.392L61.6772 52.3669L60.3323 46.8981C59.9529 45.3553 58.3947 44.4119 56.8514 44.7915L51.8693 46.0167C50.3263 46.3962 49.3831 47.9547 49.7627 49.4976C49.7628 49.4973 52.9616 61.7348 53.3116 63.1576Z" fill="url(#paint6_linear)"/>
<path d="M35.972 42.8132C36.2092 42.8132 36.4333 42.6916 36.5616 42.4865C37.7633 40.5649 40.5043 38.3965 44.0267 36.7852C46.9365 35.4542 49.7855 34.7753 51.9509 34.7753C52.67 34.7753 53.3281 34.874 53.3281 34.874C53.5653 34.874 53.7895 34.7524 53.9179 34.5473C55.1196 32.6257 57.8604 30.4573 61.383 28.846C63.6812 27.7949 65.9413 27.1503 67.8568 26.9257C68.1384 26.8927 68.3719 26.692 68.4466 26.4183C68.5213 26.1448 68.4222 25.8532 68.1964 25.6816C65.5437 23.6656 60.8046 22.3493 55.2001 22.349C50.6094 22.3489 45.4383 23.2328 40.3541 25.3375L39.5399 23.5576C39.2163 22.8503 38.3748 22.5265 37.655 22.8559C36.9384 23.1836 36.6283 24.0304 36.9533 24.7407L37.7675 26.5207C26.8472 32.0066 20.2018 41.7609 19.8207 47.8099C19.8028 48.0929 19.9588 48.3585 20.2146 48.4809C20.4698 48.603 20.7744 48.5586 20.9841 48.3666C22.4066 47.0643 24.3722 45.7758 26.6704 44.7246C29.5802 43.3934 32.4292 42.7146 34.5946 42.7146C35.3135 42.7145 35.9718 42.8132 35.972 42.8132Z" fill="#F39F2D"/>
<path d="M35.972 42.8132C36.2092 42.8132 36.4333 42.6916 36.5616 42.4865C37.7633 40.5649 40.5043 38.3965 44.0267 36.7852C46.9365 35.4542 49.7855 34.7753 51.9509 34.7753C52.67 34.7753 53.3281 34.874 53.3281 34.874C53.5653 34.874 53.7895 34.7524 53.9179 34.5473C55.1196 32.6257 57.8604 30.4573 61.383 28.846C63.6812 27.7949 65.9413 27.1503 67.8568 26.9257C68.1384 26.8927 68.3719 26.692 68.4466 26.4183C68.5213 26.1448 68.4222 25.8532 68.1964 25.6816C65.5437 23.6656 60.8046 22.3493 55.2001 22.349C50.6094 22.3489 45.4383 23.2328 40.3541 25.3375L39.5399 23.5576C39.2163 22.8503 38.3748 22.5265 37.655 22.8559C36.9384 23.1836 36.6283 24.0304 36.9533 24.7407L37.7675 26.5207C26.8472 32.0066 20.2018 41.7609 19.8207 47.8099C19.8028 48.0929 19.9588 48.3585 20.2146 48.4809C20.4698 48.603 20.7744 48.5586 20.9841 48.3666C22.4066 47.0643 24.3722 45.7758 26.6704 44.7246C29.5802 43.3934 32.4292 42.7146 34.5946 42.7146C35.3135 42.7145 35.9718 42.8132 35.972 42.8132Z" fill="url(#paint7_linear)"/>
<defs>
<linearGradient id="paint0_linear" x1="51.6923" y1="78.3227" x2="20.6024" y2="78.3227" gradientUnits="userSpaceOnUse">
<stop stop-color="white"/>
<stop offset="1" stop-color="#E8952F"/>
</linearGradient>
<linearGradient id="paint1_linear" x1="86.1913" y1="12.9278" x2="76.0871" y2="12.9278" gradientUnits="userSpaceOnUse">
<stop stop-color="white"/>
<stop offset="1" stop-color="#E8952F"/>
</linearGradient>
<linearGradient id="paint2_linear" x1="50.131" y1="43.008" x2="46.1385" y2="43.008" gradientUnits="userSpaceOnUse">
<stop stop-color="white"/>
<stop offset="1" stop-color="#E8952F"/>
</linearGradient>
<linearGradient id="paint3_linear" x1="101.319" y1="63.724" x2="57.4391" y2="63.724" gradientUnits="userSpaceOnUse">
<stop stop-color="white"/>
<stop offset="1" stop-color="#E8952F"/>
</linearGradient>
<linearGradient id="paint4_linear" x1="82.8054" y1="57.418" x2="72.6279" y2="57.418" gradientUnits="userSpaceOnUse">
<stop stop-color="white"/>
<stop offset="1" stop-color="#E8952F"/>
</linearGradient>
<linearGradient id="paint5_linear" x1="60.3822" y1="40.4667" x2="53.0325" y2="40.4667" gradientUnits="userSpaceOnUse">
<stop stop-color="white"/>
<stop offset="1" stop-color="#E8952F"/>
</linearGradient>
<linearGradient id="paint6_linear" x1="89.1089" y1="56.9511" x2="64.0859" y2="56.9511" gradientUnits="userSpaceOnUse">
<stop stop-color="white"/>
<stop offset="1" stop-color="#E8952F"/>
</linearGradient>
<linearGradient id="paint7_linear" x1="85.9604" y1="35.5346" x2="43.9862" y2="35.5346" gradientUnits="userSpaceOnUse">
<stop stop-color="white"/>
<stop offset="1" stop-color="#E8952F"/>
</linearGradient>
</defs>
</svg>
