<svg xmlns="http://www.w3.org/2000/svg" width="152" height="100" viewBox="0 0 152 100">
    <defs>
        <linearGradient id="linear-gradient" x1="-24.042" y1="35.877" x2="-24.04" y2="35.877" gradientUnits="objectBoundingBox">
            <stop offset="0" stop-color="#94c83f"/>
            <stop offset=".12" stop-color="#94c83f"/>
            <stop offset=".22" stop-color="#9bca3c"/>
            <stop offset=".36" stop-color="#add134"/>
            <stop offset=".53" stop-color="#ccdc27"/>
            <stop offset=".71" stop-color="#f5ea15"/>
            <stop offset=".73" stop-color="#faec13"/>
            <stop offset="1" stop-color="#faec13"/>
        </linearGradient>
        <clipPath id="clip-path">
            <path id="_Compound_Clipping_Path_" data-name="&lt;Compound Clipping Path&gt;" d="M10.854 80c-3.56 0-3.648 3.813-3.648 3.813l5.329 3.525-2.092-.938H7l.588 2.9h2.938c3.554 0 3.59-3.7 3.59-3.7v-.541L10.19 82.4l1.263.494H13.8l.464-2.9zm17.761 0c-2.938 0-2.938 3.7-2.938 3.7v5.6h2.9v-2.931h3.966l-.276-2.891h-3.253l-.435 1.763v-2.35h2.938L32.592 80zm18.113 2.9h1.7a1.1 1.1 0 0 1 1.1 1.1 1.116 1.116 0 0 1-1.1 1.1h-1.242l-.458 1.457zM43.849 80v9.306h2.879v-1.333a6.145 6.145 0 0 0 2.661 1.481A6.017 6.017 0 0 0 51 89.67a4.061 4.061 0 0 0 .705-.041 6.269 6.269 0 0 0 2.438-.817L52.7 86.345a3.443 3.443 0 0 1-1.428.435A3.988 3.988 0 0 0 48.431 80zm10.945 0v2.938l1.9-.758-1.9 1.275v5.875h2.879V80zM19.3 84.442l.535 1.31h-.646l-1.357 1.375zM18.251 80 13.6 89.306h3.214l.447-.776H21.3l.47.776h3.2L20.425 80zm19.182 4.465.588 1.31h-.646l-1.287 1.445zM36.446 80 31.8 89.306h3.214l.447-.776h4.03l.47.776h3.2L38.614 80z" transform="translate(-7 -80)" style="fill:none"/>
        </clipPath>
        <filter id="Rectangle_1493" x="0" y="0" width="152" height="100" filterUnits="userSpaceOnUse">
            <feOffset dy="3"/>
            <feGaussianBlur stdDeviation="3" result="blur"/>
            <feFlood flood-opacity=".161"/>
            <feComposite operator="in" in2="blur"/>
            <feComposite in="SourceGraphic"/>
        </filter>
        <style>
            .cls-6{fill:#fff}.cls-3{fill:#3b6431}.cls-7{fill:#fdd900}
        </style>
    </defs>
    <g id="Group_8423" data-name="Group 8423" transform="translate(-781.516 6)">
        <g id="Vinpearl_Web_Logos-09" data-name="Vinpearl Web Logos-09" transform="translate(828.519 10.654)">
            <path id="_Compound_Path_" data-name="&lt;Compound Path&gt;" class="cls-3" d="M50.457 89.856a6.9 6.9 0 0 1-1.4-.141l-.394-.106a6.738 6.738 0 0 1-1.763-.752v.629h-7.946l-.47-.77h-3.22l-.441.77h-4.788l1.465-2.938h-2.781v2.938h-7.961l-.47-.77h-3.213l-.447.77H11.84l.264-.523a4.436 4.436 0 0 1-2.174.517H6.394l-.864-4.313h2.626l-2.28-1.492v-.394a4.374 4.374 0 0 1 4.365-4.518H14.5l-.682 4.33h-1.173l1.592 1.087v.541l2.938-5.957h3.067l4.113 8.407v-3.989a5.4 5.4 0 0 1 1.28-3.482 3.214 3.214 0 0 1 2.35-.934h5.005l-1.251 3.478h.588l.223 2.256 2.867-5.764h3.067l4.066 8.343v-8.316h5.288a4.7 4.7 0 0 1 4.489 6.1h.041l1.122 1.915v-8.015h4.31V89.5h-4.33v-.341a7.162 7.162 0 0 1-2.215.646 4.935 4.935 0 0 1-.811.047m-2.62-6a.4.4 0 0 0 .382-.382.388.388 0 0 0-.382-.382h-.981v.764z" transform="translate(-2.282 -31.512)"/>
            <g id="_Clip_Group_" data-name="&lt;Clip Group&gt;" transform="translate(4.111 47.969)">
                <g id="Group_8454" data-name="Group 8454" style="clip-path:url(#clip-path)">
                    <path id="_Path_" data-name="&lt;Path&gt;" transform="translate(.006 -.023)" style="fill:url(#linear-gradient)" d="M0 0h50.661v9.682H0z"/>
                </g>
            </g>
            <path id="_Path_2" data-name="&lt;Path&gt;" class="cls-3" d="M52.511 24.774c.17-.981 1.727-.817 3.455-2.215.893-.729.893-1.927-1.7-2.221-2.509-.282-10.281-.452-10.346-1.98-.082-1.9 9.2-.505 8.172-3.8-.411-1.328-3.284-1.328-4.988-1.381s-1.528-1.011-.846-1.222c4.06-1.228 2.432-2.609.306-2.679-.77-.029-2.1-.235-2.35-.787-.588-1.381-2.215-1.657-3.8-1.627s-5.023.329-5.581-.282c-.764-.834 2.632-.687 3.572-1.469.811-.676-.541-1.351-3.907-.881-1.439.2-2.938-1.968-4.753-1.88-3.261.147-2.979 2.473-5.053 1.88a6.745 6.745 0 0 0-1.909-.511 4.113 4.113 0 0 0-3.014 1.457c-.588.588-.77 1.381-2.3 1.351s-3.337 0-2.844 1.381 5.235.658 5.7 1.874C21.1 11.76 15 9.71 12.953 13.064c-.946 1.545-1.792 2.591-2.515 2.591-2.62 0-5.105 1.087-4.518 2.673.758 2.027 6.651 1.134 6.651 2.614 0 1.839-6.5-.588-7.479 1.974-.247.64-.511 1.028-1.8 1.175-4.7.517-3.278 2.767-2.3 2.9 3.989.541 2.256 3.525 7.638 3.525 1.363 0 8.9.341 9.9.341 4.259 0 10.158 1.081 10.205 5.47v9.106c0 .311.364.282.823.282s1.551 0 1.551-.282v-9.085c0-4.265 5.952-5.523 10.234-5.523a58.344 58.344 0 0 1 9.494-.306c3.149.253 3.678-1.175 5.834-1.11 3.748.141 1.833-2.938-.682-3.249-2.068-.247-3.643-.323-3.455-1.387"/>
            <path id="_Path_3" data-name="&lt;Path&gt;" class="cls-3" d="M34 49.88s7.814 1.909 9.571 11.821v-4.383a13.56 13.56 0 0 0-8.66-7.438z" transform="translate(-14.026 -19.607)"/>
            <path id="_Path_4" data-name="&lt;Path&gt;" class="cls-3" d="M35.34 52.285s-2.973-.764-8.184-2.585L25 49.735A84.186 84.186 0 0 1 36.451 53.3z" transform="translate(-10.314 -19.533)"/>
            <path id="_Path_5" data-name="&lt;Path&gt;" class="cls-3" d="M61.305 50.27s-9.012 2.873-9.535 11.368v-4.371s1.522-4.165 8.666-7z" transform="translate(-21.356 -19.768)"/>
            <path id="_Path_6" data-name="&lt;Path&gt;" class="cls-3" d="M57.13 52.364A88.278 88.278 0 0 0 67.523 47l.546.082s-4.782 2.5-11.88 6.38z" transform="translate(-23.179 -18.419)"/>
            <path id="_Path_7" data-name="&lt;Path&gt;" class="cls-3" d="M50.6 68.571V60.51h-1.76v7.6c0 1.539-.417 2.415-1.14 2.562h3.889a2.891 2.891 0 0 1-.987-2.1" transform="translate(-19.677 -23.992)"/>
            <path id="_Path_8" data-name="&lt;Path&gt;" class="cls-3" d="M77.164 61.317a5.335 5.335 0 0 1-2.2-.77 6.274 6.274 0 0 0-.194-1.5 4.894 4.894 0 0 1-.588-1.8 2.779 2.779 0 0 0-.464-.981 1.874 1.874 0 0 0-1.886-1.592 3.546 3.546 0 0 1-1.968-.705c-.934-.5-2.573.159-2.432.858.276 1.375-.306 1.533.682 2.35-.441-.235-.981-.705-1.134-2.274a10.933 10.933 0 0 1-6.04-.088 8.037 8.037 0 0 0-4.7 3.854 7 7 0 0 1-1.845 5.288 1.14 1.14 0 0 0-1.322.787A1.222 1.222 0 0 0 54.5 64.1s1.6-1.24 2.432-4.859a11.7 11.7 0 0 0 .27 1.475c0 1.293-.405 3.613-1.815 4.741-.405.329-.129 2.426-.129 2.426h1.639c.206-.118.07-.476.07-.476-.388-.758.764-3.3 2.626-4.7.076.159-1.069 1.369-1.011 1.522a4.3 4.3 0 0 1 .259 2.873.388.388 0 0 0 .353.376c.353.041 1.533 0 1.533 0s.358-.141.206-.335a3.073 3.073 0 0 1-.076-3.9 6.965 6.965 0 0 0 5.047-.893s.676 1.375-.411 4.541a1.011 1.011 0 0 0 .2 1h1.6s.341-.165.294-.394a8.325 8.325 0 0 1 1.175-5.94s-.776 1.5-.323 2.015c.588.687 2.25 1.028 1.968 3.173 0 0 .076.705.552.693h1.016s.7 0 .458-.4-.339-1.961-1.426-3.038a4.557 4.557 0 0 1-.964-3.913 2.585 2.585 0 0 1 1.228-1.093.964.964 0 0 0 .993.235 1.492 1.492 0 0 0 .682.705 5.758 5.758 0 0 0 .687 1.575 3.813 3.813 0 0 1 0 2.573c-.588 2.168-.464 3.455.112 3.56a.364.364 0 0 1 .335-.164c-.875-1.6.734-3.76.787-6.192a4.377 4.377 0 0 1-1.175-.887 4.741 4.741 0 0 0 3.49.922" transform="translate(-21.892 -21.221)"/>
            <path id="_Path_9" data-name="&lt;Path&gt;" class="cls-6" d="M54.93 41.22h3.22v1.034h-1.992v1.069h1.663v.977h-1.663v.476h2.092v1.034h-3.32z" transform="translate(-22.659 -16.035)"/>
            <path id="_Compound_Path_2" data-name="&lt;Compound Path&gt;" class="cls-6" d="M63.745 45.7H62.57l2.238-4.671a.035.035 0 0 1 .035-.035.041.041 0 0 1 .041.035l2.2 4.671h-1.271l-.17-.394h-1.728zm1.016-2.35-.461 1.065h.934z" transform="translate(-25.811 -15.94)"/>
            <path id="_Compound_Path_3" data-name="&lt;Compound Path&gt;" class="cls-6" d="M75.96 45.789h-1.328l-.646-1.052h-.458v1.052H72.3v-4.571h1.763a1.956 1.956 0 0 1 1.434.523 1.716 1.716 0 0 1 .5 1.281 1.569 1.569 0 0 1-.828 1.486zm-1.98-2.033a.758.758 0 0 0 0-1.516h-.452v1.516z" transform="translate(-29.824 -16.033)"/>
            <path id="_Path_10" data-name="&lt;Path&gt;" class="cls-6" d="M80.73 41.22h1.228v3.56h1.956v1.034H80.73z" transform="translate(-33.301 -16.035)"/>
            <path id="_Path_11" data-name="&lt;Path&gt;" class="cls-7" d="M43.238 44.087a2.938 2.938 0 0 1-1.081-1.41 1.175 1.175 0 0 1-.335-.206 1.4 1.4 0 0 1-.37-1.016.276.276 0 0 0-.059-.118.259.259 0 0 0-.229-.053c-.306.094-.176.188-.1.235s.1.182.1.458c0 .7-.517.394-.7.5s-.118.17-.118.17a1.886 1.886 0 0 0-1.028-.153.552.552 0 0 0 .3.423 19.934 19.934 0 0 1-7.72 4.947c-1.257 2.139-4.212 1.992-4.212 1.992-.787.358-1.763 2.262-1.763 2.262a7.054 7.054 0 0 1-1.815 4.442c-.646.934-.441 1.5-.441 1.5a1.968 1.968 0 0 0 .729-1.387c.094-.118.194-.247.288-.382a15.546 15.546 0 0 0 1.639-4.019s-.118.993-.176 2.291a2.691 2.691 0 0 1-1.363 2 8.786 8.786 0 0 1-.676 4.342 3.067 3.067 0 0 1-.259.9l.1.9h.74l-.253-.828a13.366 13.366 0 0 1 1.175-4.113 13.93 13.93 0 0 1 2.614-3.026c0 .1-.846 1.046-.846 1.14 0 1.069-.441 1.4-.441 1.4 1.21 1.6 1.387 4.7 1.387 4.7l.188.212.206.546h.881a7.145 7.145 0 0 0-.588-.723 1.175 1.175 0 0 0-.059-.394 10.225 10.225 0 0 1-.635-3.954 8.673 8.673 0 0 1 1.087-3.748 3.69 3.69 0 0 0 2.808.094 14.284 14.284 0 0 1-1.058 3.349s-.182 1.175-.335 2.115a13.448 13.448 0 0 1-.781 2.415 1.433 1.433 0 0 1 .041.846h.623a2.115 2.115 0 0 1-.153-.758 1.222 1.222 0 0 0 .364-.588 8.871 8.871 0 0 1 .9-3.443 10.622 10.622 0 0 1 1.469-3.337c.094-.153-.206-1.034-.206-1.034a13.008 13.008 0 0 1 1.3 4.289 13.759 13.759 0 0 1 1.175 3.836l.241.317.241.734h.87a3.226 3.226 0 0 0-.588-.852.746.746 0 0 0-.229-.629 14.018 14.018 0 0 1-.781-2.938 3.831 3.831 0 0 0-.364-1.721 10.211 10.211 0 0 1-.212-3.02 3.02 3.02 0 0 0 0-3.319 1.14 1.14 0 0 0 .729-.817 10.523 10.523 0 0 0 2.244-1.686 12.367 12.367 0 0 0 2.479-3.4.493.493 0 0 1 .417-.288.746.746 0 0 1 .347.082 1.6 1.6 0 0 0 .846.329 1.763 1.763 0 0 1 1.175.588.417.417 0 0 0 .635-.029c.065-.394-.388-.993-.388-.993" transform="translate(-9.751 -16.059)"/>
            <path id="_Path_12" data-name="&lt;Path&gt;" class="cls-7" d="M40.906 65.478s-.452-.946.3-1.281.723-.682 1.6-.511a9.988 9.988 0 0 0 2.312.314 2.938 2.938 0 0 1 1.5.247c.165.129.623.212.729-.082a3.032 3.032 0 0 1 .664-1.251s-.27-.523 0-.523.358.311.358.311.188.047.147-.123a4.353 4.353 0 0 0-2.291-1.833 4.669 4.669 0 0 1 2.538 1.6s-.082-.77-1.815-1.686a2.832 2.832 0 0 1 2.15 1.663s.4-.247.294-.059a3.643 3.643 0 0 1-.229.353s.247.588.376.834c.2.382.588.664.376.9s-1.175-.123-1.175-.123a3.3 3.3 0 0 1-.981 1.645 2.386 2.386 0 0 1-.793.4 3.748 3.748 0 0 1-.588.687 23.845 23.845 0 0 0-.253 3.231.276.276 0 0 1 .112.276H45.9a4.324 4.324 0 0 1-.141-1.61c.041-1.175-.317.981-.194 1.61 0 0-.37.141-.394-.212s.129-2.838.129-2.838 0-.588-.235-.729a4.154 4.154 0 0 1-2.191-.188 6.1 6.1 0 0 0-.646 1.792 4.514 4.514 0 0 0 1.087 2.068l.165.135a.84.84 0 0 1-.458 0 6.64 6.64 0 0 1-1.422-2.432 1.24 1.24 0 0 0 .235-.693 2.35 2.35 0 0 0 .588-1.175 6.322 6.322 0 0 1-1.222 1.551c-.5.482-.4 1.11-.211 1.862a5.387 5.387 0 0 0 .358 1.022h-.5s-.376-1.763-.4-2.35-.212-.687.082-.958a1.9 1.9 0 0 0 .588-1.34 1.5 1.5 0 0 0-.206-.541" transform="translate(-16.654 -24.054)"/>
            <path id="_Path_13" data-name="&lt;Path&gt;" class="cls-7" d="M62.255 21.827c-6.5 1.011-4.113 6.151-4.113 6.2a2.85 2.85 0 0 0-.8-.664A5.769 5.769 0 0 0 54 26.715c2.673.84 5.376 3.384 2.55 3.255 1.65 1.03 3.75 1.357 4.383 1.046 1.322-.664.264-2.614-.441-4.406-1.175-3.014.159-3.748 2-4.7a1.762 1.762 0 0 1 .282-.129h-.053c-.135 0-.37.035-.47.047" transform="translate(-22.276 -8.016)"/>
            <path id="_Path_14" data-name="&lt;Path&gt;" class="cls-7" d="M63.036 67.5c.235.253.588 0 .781.059.071.118-.047.123-.159.112-.64-.059-.282.317-.282.317s.206.294 1.087-.229a2.35 2.35 0 0 0 1.052 1.328l1.128-.787-.887 1.4c-.364.588-1.486 2.086-1.874 2.05s-.347.441-.347.441a4.618 4.618 0 0 0 .917 0 3.466 3.466 0 0 0 .511-.335c.212-.588 2.115-2.039 2.115-2.039a1.387 1.387 0 0 1 1.369-1.228l-.64.494.329.106s1.175 1.6.588 2.5c-.517.094-.423.388-.423.388h.875c.311 0 .341-.118.341-.118a4.013 4.013 0 0 0-.194-2.15c-.27-.347-.094-.588-.094-.588a5.622 5.622 0 0 0 2.35-.464 1.422 1.422 0 0 1 1.351-.176 2.849 2.849 0 0 0 .311 1.175 2.467 2.467 0 0 1 .27 1.24s-.588.793-1.081.817a.4.4 0 0 0-.417.464h.587a2.5 2.5 0 0 0 1.857-1.51 1.727 1.727 0 0 1-.117-1.234 8.273 8.273 0 0 0-.981-.864s3.249 1.5 3.09 3.3a.482.482 0 0 0-.153.423h.928l.041-.153a4.612 4.612 0 0 0-.523-1.645 6.463 6.463 0 0 1-1.763-3.061c1.5.588 1.639 3.243 3.525 3.143.517 0 .376-.253.376-.253s-.041-.452-.588-.159c-1.216.635-1.763-1.962-3.014-2.938A88.473 88.473 0 0 1 73.8 66.1a8.46 8.46 0 0 0-2.861-.264 14.859 14.859 0 0 1-2.35.059c-1.175.135-.864.993-.864.993s-.588-.77.729-1.246c-.106-.429-1.34-.952-2.144-1.058a4.125 4.125 0 0 0-2.873.746c-.135.194.059.529.2.588a1.128 1.128 0 0 1 .934-.429 2.35 2.35 0 0 0-1.134.84s-.781.588-.546.676c.376-.053-.253.106.118.494" transform="translate(-25.924 -25.663)"/>
            <path id="_Path_15" data-name="&lt;Path&gt;" class="cls-6" d="M23.588 45.861a.037.037 0 0 1-.041.035c-.041 0-.029 0-.041-.035L21.35 41.22h1.3l.94 2.144.91-2.144h1.251z" transform="translate(-8.808 -16.035)"/>
            <path id="_Path_16" data-name="&lt;Path&gt;" class="cls-6" transform="translate(18.288 25.185)" d="M0 0h1.228v4.594H0z"/>
            <path id="_Path_17" data-name="&lt;Path&gt;" class="cls-6" d="M37.255 43.455v2.262H36.08v-4.63c0-.059.029-.065.094 0l2.885 2.35v-2.291h1.175v4.659q0 .094-.088 0z" transform="translate(-14.884 -15.961)"/>
            <path id="_Compound_Path_4" data-name="&lt;Compound Path&gt;" class="cls-6" d="M47.008 45.789H45.78v-4.571h1.763a1.939 1.939 0 0 1 1.428.523 1.886 1.886 0 0 1 0 2.567 1.956 1.956 0 0 1-1.428.511h-.511zm.452-2.033a.758.758 0 1 0 0-1.516h-.452v1.516z" transform="translate(-18.885 -16.033)"/>
            <path id="_Path_18" data-name="&lt;Path&gt;" class="cls-3" d="M15.022 70.29c.288-1.081-.94-2.732-.94-2.732a4.571 4.571 0 0 1 .247.964c-.323.076-.934.17-1.016.411s.834.676.834.676l-.588 1.091-.541-.106c-2.15-1.839-.071-3.02-.071-3.02a2.456 2.456 0 0 1-1.14.229c-1.545 2.62-3.137 2.1-3.137 2.1l-.141.223-.188.029a1.034 1.034 0 0 1-.552-.917 2.656 2.656 0 0 1-1.81-2.35 2.3 2.3 0 0 0 2.062 1.093 1.763 1.763 0 0 1-.588-1.116 2.127 2.127 0 0 0 1.246.623c.588-.035.74-1.909.74-1.909-.588-.194-.67-1.175-.67-1.175l.588.705c-.259-.693-.153-.864-.153-.864a1.663 1.663 0 0 1 .964.8 11.776 11.776 0 0 1 5.252-3.22c4.142 1.551 5.875.264 5.875.264a6.281 6.281 0 0 0 2.221.405 4.882 4.882 0 0 1 2.221 2.274 14.318 14.318 0 0 0 .535 3.69l-.5-.776a3.4 3.4 0 0 0-.306-1.845s-.823 1.428 1.1 3.037a6.692 6.692 0 0 0-.37 2.315h-1.468a.188.188 0 0 1-.059-.311c.423-.5.881-1.551-1-2.938a7.485 7.485 0 0 1-1.392-1.3 4.606 4.606 0 0 0 1.175 1.61 2.515 2.515 0 0 0-.329 1.175 2.191 2.191 0 0 0-.787 1.4H20.9s-.276-.112-.071-.317a3.913 3.913 0 0 0 1.257-3.3 2.984 2.984 0 0 1-3.043 1.422c-2.332-.135-2.385-1.457-2.385-1.457a1.122 1.122 0 0 0 .129 1.016 1.4 1.4 0 0 1-.7-.282 2.109 2.109 0 0 0 .306 1.569 2.021 2.021 0 0 0-.153 1.763H14.7s-.229-.082-.047-.27a1.475 1.475 0 0 0 .364-.646" transform="translate(-2.468 -24.537)"/>
        </g>
    </g>
</svg>
