<svg xmlns="http://www.w3.org/2000/svg" width="152" height="100" viewBox="0 0 152 100">
    <defs>
        <linearGradient id="linear-gradient" x1=".385" y1=".138" x2="1.026" y2=".912" gradientUnits="objectBoundingBox">
            <stop offset="0" stop-color="#ce882c"/>
            <stop offset="1" stop-color="#fdbf16"/>
        </linearGradient>
        <filter id="Rectangle_1492" x="0" y="0" width="152" height="100" filterUnits="userSpaceOnUse">
            <feOffset dy="3"/>
            <feGaussianBlur stdDeviation="3" result="blur"/>
            <feFlood flood-opacity=".161"/>
            <feComposite operator="in" in2="blur"/>
            <feComposite in="SourceGraphic"/>
        </filter>
        <style>
            .cls-2{fill:#0f206c}.cls-3{fill:#00ae42}
        </style>
    </defs>
    <g id="Group_8422" data-name="Group 8422" transform="translate(-601.516 6)">
        <g id="Vinpearl_Web_Logos-12" data-name="Vinpearl Web Logos-12" transform="translate(621.494 -11.8)">
            <path id="Path_11781" data-name="Path 11781" class="cls-2" d="M15.175 53.359a.178.178 0 0 0-.056-.122.2.2 0 0 0-.122 0h-3.722a.178.178 0 0 0-.122.067.183.183 0 0 0 .122.256c.4.089.589.3.589.656a2.222 2.222 0 0 1-.222.844C10 58.537 8.8 61.2 7.853 63.3l-3.722-8.341a2.222 2.222 0 0 1-.222-.844c0-.367.189-.567.6-.656a.156.156 0 0 0 .111-.111.189.189 0 0 0 0-.167.167.167 0 0 0-.111 0h-.067a42.779 42.779 0 0 1-4.3 0 .156.156 0 0 0-.111.056.189.189 0 0 0 0 .122.167.167 0 0 0 .133.156 2.578 2.578 0 0 1 1.767 1.633c2.344 4.8 4.189 8.767 5.489 11.789a.122.122 0 0 0 .122.1.144.144 0 0 0 .144-.1c1.389-3.137 3.267-7.078 5.556-11.737a2.6 2.6 0 0 1 1.8-1.622.156.156 0 0 0 .133-.222zM7.509 66.9z" transform="translate(0 3.152)"/>
            <path id="Path_11782" data-name="Path 11782" class="cls-2" d="M13.938 55.117a1.2 1.2 0 0 0 .889.389 1.178 1.178 0 0 0 .878-.378 1.3 1.3 0 0 0 .389-.9 1.267 1.267 0 0 0-.378-.889 1.233 1.233 0 0 0-.889-.389 1.189 1.189 0 0 0-.889.378 1.233 1.233 0 0 0 0 1.789zm.9.233z" transform="translate(1.504 3.128)"/>
            <path id="Path_11783" data-name="Path 11783" class="cls-2" d="M17.052 65.761a.811.811 0 0 1-.889-.522 2.433 2.433 0 0 1-.189-1.111v-6.967a4.989 4.989 0 0 1 .144-1.4.156.156 0 0 0-.2-.2 10.633 10.633 0 0 1-2.444.611.157.157 0 0 0 .011.311c.156 0 .322.133.478.433a2.544 2.544 0 0 1 .278 1.244v5.944c0 1.111-.278 1.622-.844 1.622h-.156a.144.144 0 0 0-.1 0 .133.133 0 0 0 0 .111.211.211 0 0 0 .078.178.333.333 0 0 0 .178 0h3.567a.256.256 0 0 0 .278-.189.144.144 0 0 0 0-.133.156.156 0 0 0-.189.067z" transform="translate(1.456 3.417)"/>
            <path id="Path_11784" data-name="Path 11784" class="cls-2" d="M27.629 66.157a.233.233 0 0 0 .244-.157.133.133 0 0 0 0-.144.144.144 0 0 0-.133-.067.844.844 0 0 1-.689-.222 2.022 2.022 0 0 1-.367-1.422v-4.532a3.178 3.178 0 0 0-1.011-2.378 3.922 3.922 0 0 0-2.856-1.111 4.033 4.033 0 0 0-2.944 1.111v-.589a3.6 3.6 0 0 1 0-.611.156.156 0 0 0 0-.133.167.167 0 0 0-.144 0 21.356 21.356 0 0 1-2.367.344.156.156 0 0 0-.133.178c0 .078.067.133.167.133s.322.133.489.433a2.6 2.6 0 0 1 .233 1.244v5.878c0 1.189-.333 1.7-1 1.6a.167.167 0 0 0-.122 0 .133.133 0 0 0-.056.111.233.233 0 0 0 .067.189.267.267 0 0 0 .189.067h3.567a.256.256 0 0 0 .278-.189.144.144 0 0 0 0-.133.156.156 0 0 0-.111 0 .811.811 0 0 1-.711-.211 1.933 1.933 0 0 1-.356-1.389v-4.689a2.311 2.311 0 0 1 .911-1.544 2.778 2.778 0 0 1 1.778-.6h.111a2.222 2.222 0 0 1 1.644.789 2.7 2.7 0 0 1 .633 1.822v4.2a4.3 4.3 0 0 1-.289 1.778.189.189 0 0 0 0 .156.156.156 0 0 0 .133.067h2.889z" transform="translate(1.88 3.454)"/>
            <path id="Path_11785" data-name="Path 11785" class="cls-2" d="M32.3 56h-.189a4.644 4.644 0 0 0-2.711.878 4.944 4.944 0 0 1 0-.733.178.178 0 0 0 0-.144.144.144 0 0 0-.122 0c-.544.111-1.322.222-2.322.344a.156.156 0 0 0 .011.311s.211 0 .433.633a4.711 4.711 0 0 1 .267 1.611v9.411a2.678 2.678 0 0 1-.222 1.111.711.711 0 0 1-.633.5h-.156a.167.167 0 0 0-.1 0 .133.133 0 0 0-.056.111.189.189 0 0 0 .067.156.267.267 0 0 0 .222.078h3.5c.2 0 .256-.111.267-.167a.178.178 0 0 0 0-.144.156.156 0 0 0-.133 0 .767.767 0 0 1-.644-.189 2 2 0 0 1-.356-1.422V65.29a4.333 4.333 0 0 0 2.644.889h.078a4.644 4.644 0 0 0 3.5-1.5 5.3 5.3 0 0 0 1.411-3.689 4.889 4.889 0 0 0-1.322-3.478A4.444 4.444 0 0 0 32.3 56zm2.833 4.922a4.778 4.778 0 0 1-.9 2.889 2.656 2.656 0 0 1-2.222 1.244h-.078a3.111 3.111 0 0 1-2.611-1.411v-5.12a3.011 3.011 0 0 1 2.7-1.411h.056a2.756 2.756 0 0 1 2.278 1.233 4.511 4.511 0 0 1 .778 2.578z" transform="translate(2.942 3.465)"/>
            <path id="Path_11786" data-name="Path 11786" class="cls-2" d="M45.158 57.27a5.189 5.189 0 0 0-3.333-1.2 5.156 5.156 0 0 0-3.689 1.511 5.011 5.011 0 0 0-1.556 3.689 4.956 4.956 0 0 0 1.578 3.756A5.022 5.022 0 0 0 41.68 66.4h.067a6.178 6.178 0 0 0 2.744-.667 5.1 5.1 0 0 0 2-1.856.567.567 0 0 0 .1-.533.133.133 0 0 0-.133-.089.156.156 0 0 0-.133.067 4.689 4.689 0 0 1-4.333 1.844 3.511 3.511 0 0 1-2.567-1.233 4.011 4.011 0 0 1-.978-2.722 5.29 5.29 0 0 1 .078-.833h8.289a.111.111 0 0 0 .122 0 .133.133 0 0 0 0-.111.156.156 0 0 0 0-.067 5.089 5.089 0 0 0-1.778-2.93zm-5.189.456a2.767 2.767 0 0 1 1.778-.633 2.9 2.9 0 0 1 1.8.656 3.544 3.544 0 0 1 1.111 1.5H38.9a3.633 3.633 0 0 1 1.067-1.522zm1.7 8.622zm5.167-5.978z" transform="translate(4.062 3.474)"/>
            <path id="Path_11787" data-name="Path 11787" class="cls-2" d="M63.767 56.842a.167.167 0 0 0-.133-.056 3.189 3.189 0 0 1-1.111-.211 4.167 4.167 0 0 0-1.367-.244 3.489 3.489 0 0 0-2.378.878v-.322a3.566 3.566 0 0 1 .056-.611.156.156 0 0 0 0-.133.167.167 0 0 0-.144 0 21.356 21.356 0 0 1-2.367.344.156.156 0 0 0 .011.311c.167 0 .333.133.489.433a2.456 2.456 0 0 1 .278 1.222v5.889c0 1.167-.322 1.689-.978 1.611a.133.133 0 0 0-.144 0 .611.611 0 0 1-.289.067.8.8 0 0 1-.522-.189 1.844 1.844 0 0 1-.611-1 4.967 4.967 0 0 1-.111-1.256v-4.533a2.456 2.456 0 0 0-1.111-2.1 4.444 4.444 0 0 0-2.644-.733 7.3 7.3 0 0 0-1.289.111 6.111 6.111 0 0 0-2.778 1.211.267.267 0 0 0 0 .311 1.289 1.289 0 0 0 .589.5 1.455 1.455 0 0 0 .433.056 2.444 2.444 0 0 0 1.278-.522 3.7 3.7 0 0 1 1.178-.611 4.312 4.312 0 0 1 .744-.067 2.089 2.089 0 0 1 1.289.367 1.367 1.367 0 0 1 .544 1.111 1.111 1.111 0 0 1-.867 1.111 16.822 16.822 0 0 1-1.733.389c-.778.144-1.344.267-1.711.378a3.333 3.333 0 0 0-1.678 1.111 2.656 2.656 0 0 0-.589 1.667 2.756 2.756 0 0 0 .889 2.078 3.744 3.744 0 0 0 2.567 1 4.711 4.711 0 0 0 1.989-.422 3.011 3.011 0 0 0 1.111-.733 1.589 1.589 0 0 0 .633.822 2.378 2.378 0 0 0 1.433.433 2.911 2.911 0 0 0 .911-.156 1.233 1.233 0 0 0 .311-.111.322.322 0 0 0 .156 0h3.533a.244.244 0 0 0 .3-.156.156.156 0 0 0 0-.156.167.167 0 0 0-.133 0 .8.8 0 0 1-.711-.211 1.978 1.978 0 0 1-.367-1.389v-4.889a1.844 1.844 0 0 1 1.311-2.011h.211a1.9 1.9 0 0 1 .811.333 2.222 2.222 0 0 0 1.111.367 1.978 1.978 0 0 0 1.033-.3 1.311 1.311 0 0 0 .656-.8.167.167 0 0 0-.089-.189zm-11.223 3.822v2.311a2.133 2.133 0 0 1-.489 1.233 2.345 2.345 0 0 1-1.322.9 2.422 2.422 0 0 1-.744.111 2.111 2.111 0 0 1-1.433-.511A1.767 1.767 0 0 1 47.9 63.5a1.711 1.711 0 0 1 .333-1.256 2.378 2.378 0 0 1 1.511-.889c1.444-.311 2.367-.533 2.822-.689zm2.123 5.689zm0 .1z" transform="translate(5.12 3.481)"/>
            <path id="Path_11788" data-name="Path 11788" class="cls-2" d="M66.037 66.341a.178.178 0 0 0-.122 0 .8.8 0 0 1-.711-.211 1.967 1.967 0 0 1-.367-1.378V54.508a4.7 4.7 0 0 1 .133-1.4.133.133 0 0 0 0-.156.156.156 0 0 0-.167 0 10.944 10.944 0 0 1-2.444.611.178.178 0 0 0-.133.167.156.156 0 0 0 0 .122.233.233 0 0 0 .122 0c.167 0 .322.111.489.411a2.656 2.656 0 0 1 .278 1.2v9.222c0 1.111-.278 1.622-.844 1.622h-.178a.2.2 0 0 0-.111 0 .156.156 0 0 0 0 .111.2.2 0 0 0 .089.178.3.3 0 0 0 .167 0H65.8a.267.267 0 0 0 .278-.189.145.145 0 0 0-.041-.066z" transform="translate(6.883 3.125)"/>
            <path id="Path_11789" data-name="Path 11789" class="cls-3" d="M79.532 60.1a.2.2 0 0 0 0-.156.278.278 0 0 0-.167-.056h-3.333c-.1 0-.289 0-.289.167a.156.156 0 0 0 .122.156c.589.1.878.656.878 1.711v3.033a7.2 7.2 0 0 1-3.333.844 4.889 4.889 0 0 1-4.067-1.867 6.289 6.289 0 0 1-1.322-4.056 5.622 5.622 0 0 1 1.279-3.745 4.933 4.933 0 0 1 3.922-1.7 6.1 6.1 0 0 1 2.589.622A3.333 3.333 0 0 1 77.743 57a.144.144 0 0 0 .144.111c.133 0 .133 0 .167-.844l.089-2.1a.167.167 0 0 0-.111-.167 18.889 18.889 0 0 0-4.9-.678h-.156a7.089 7.089 0 0 0-5 1.989 6.544 6.544 0 0 0-2.067 4.856 6.244 6.244 0 0 0 1.311 3.911 7.156 7.156 0 0 0 4.111 2.578 9.533 9.533 0 0 0 1.944.222 11.723 11.723 0 0 0 3.022-.411 6.167 6.167 0 0 0 2.156-.933.156.156 0 0 0 .067-.122v-3.525a4.444 4.444 0 0 1 .211-1.144.856.856 0 0 1 .678-.522.178.178 0 0 0 .122-.122z" transform="translate(7.321 3.169)"/>
            <path id="Path_11790" data-name="Path 11790" class="cls-3" d="M83.275 56.23a5.189 5.189 0 0 0 0 10.367 5.189 5.189 0 0 0 0-10.367zm3.333 5.2a4.6 4.6 0 0 1-1 2.967 2.833 2.833 0 0 1-4.667 0 4.7 4.7 0 0 1-.967-2.978 4.622 4.622 0 0 1 1-2.967 2.9 2.9 0 0 1 2.322-1.2 2.9 2.9 0 0 1 2.333 1.222 4.7 4.7 0 0 1 .933 2.956z" transform="translate(8.701 3.492)"/>
            <path id="Path_11791" data-name="Path 11791" class="cls-3" d="M91.876 66.431a.822.822 0 0 1-.711-.2 1.978 1.978 0 0 1-.367-1.389V54.6a4.611 4.611 0 0 1 .133-1.389.156.156 0 0 0 0-.167.189.189 0 0 0-.167 0 11.622 11.622 0 0 1-2.444.622.167.167 0 0 0-.133.167.178.178 0 0 0 0 .122.133.133 0 0 0 .1 0c.156 0 .311.122.478.422a2.578 2.578 0 0 1 .267 1.222v9.233c0 1.178-.322 1.7-1 1.6a.133.133 0 0 0-.1 0 .122.122 0 0 0 0 .111.211.211 0 0 0 .244.233h3.567a.256.256 0 0 0 .278-.178.167.167 0 0 0 0-.144.189.189 0 0 0-.145-.023z" transform="translate(9.766 3.136)"/>
            <path id="Path_11792" data-name="Path 11792" class="cls-3" d="M100.891 54.007a.178.178 0 0 0-.122 0 3.478 3.478 0 0 1-1.111-.311 4.444 4.444 0 0 0-1.711-.356 3.756 3.756 0 0 0-2.656 1.044 3.222 3.222 0 0 0-1.111 2.356v.667h-1.066a1.344 1.344 0 0 0-1.114.722.153.153 0 0 0 .156.233 1.667 1.667 0 0 1 .389 0h1.589v6.544c0 1.111-.278 1.611-.833 1.611h-.178a.233.233 0 0 0-.122 0 .156.156 0 0 0 0 .144.244.244 0 0 0 .256.189H96.8a.256.256 0 0 0 .278-.178.144.144 0 0 0-.167-.189.867.867 0 0 1-.711-.211 1.978 1.978 0 0 1-.367-1.389v-6.565h2.222a1.544 1.544 0 0 0 1.189-.722.167.167 0 0 0 0-.189.156.156 0 0 0-.178 0 .967.967 0 0 1-.4 0h-2.875V56.3a2.467 2.467 0 0 1 .356-1.278 1.2 1.2 0 0 1 .911-.633 1.589 1.589 0 0 1 .989.356 2.489 2.489 0 0 0 1.244.456 1.878 1.878 0 0 0 .956-.244 1.111 1.111 0 0 0 .6-.722.133.133 0 0 0 .044-.222z" transform="translate(10.217 3.171)"/>
            <path id="Path_11793" data-name="Path 11793" class="cls-2" d="M38.671 70.7a.278.278 0 0 1 .256.289.833.833 0 0 1-.089.322c-.589 1.3-1.111 2.344-1.4 3.122L36.049 71.3a.678.678 0 0 1-.089-.322.278.278 0 0 1 .256-.289H34.66a1 1 0 0 1 .678.622c.844 1.733 1.511 3.156 1.978 4.256a141.26 141.26 0 0 1 2.022-4.233 1.011 1.011 0 0 1 .689-.622 17.93 17.93 0 0 1-1.356-.012z" transform="translate(3.849 5.099)"/>
            <path id="Path_11794" data-name="Path 11794" class="cls-2" d="M40.948 74.7v-3.338a.567.567 0 0 1 .478-.622h-1.512a.567.567 0 0 1 .456.633v3.333q0 .589-.5.667h1.544a.622.622 0 0 1-.467-.678z" transform="translate(4.428 5.104)"/>
            <path id="Path_11795" data-name="Path 11795" class="cls-2" d="M44.418 75.023a4.445 4.445 0 0 1-1.211 0c-.2 0-.311-.133-.311-.378v-1.6h1.4a.744.744 0 0 1 .411.122.478.478 0 0 1 .244.411 6.31 6.31 0 0 1 0-.967.967.967 0 0 1-.567.133h-1.477V71.09h1.367a1.278 1.278 0 0 1 .6.2.656.656 0 0 1 .333.544 7.223 7.223 0 0 1 0-1.044h-3.334a.589.589 0 0 1 .467.633v3.333a.6.6 0 0 1-.5.667h3.111a.356.356 0 0 0 .289-.122 1.656 1.656 0 0 0 .189-.344 4.26 4.26 0 0 1 .156-.478 1.111 1.111 0 0 0 .089-.367c-.101.456-.523.778-1.256.911z" transform="translate(4.647 5.11)"/>
            <path id="Path_11796" data-name="Path 11796" class="cls-2" d="M46.688 70.764c-.311 0-.511 0-.578-.144l-.2 1.111a.933.933 0 0 1 .9-.7h.967v3.689a.59.59 0 0 1-.489.667h1.544a.611.611 0 0 1-.5-.678V71.02h.856c.567 0 .844.244.822.722a7.245 7.245 0 0 1 .244-1.111 1.111 1.111 0 0 1-.667.133z" transform="translate(5.099 5.091)"/>
            <path id="Path_11797" data-name="Path 11797" class="cls-2" d="M54.406 70.818a4.8 4.8 0 0 1-.6 0 .511.511 0 0 1 .344.244 1.111 1.111 0 0 1 .122.511v2.711l-1.744-1.867c-.678-.733-1.256-1.356-1.711-1.878v4.178q0 .633-.467.733h.722a4.8 4.8 0 0 1 .6 0 .489.489 0 0 1-.344-.267.933.933 0 0 1-.122-.5v-2.722q1.733 1.756 3.433 3.756V71.54a1 1 0 0 1 .122-.489.489.489 0 0 1 .333-.233h-.689z" transform="translate(5.592 5.082)"/>
            <path id="Path_11798" data-name="Path 11798" class="cls-2" d="M59.507 74.856c-.844-1.789-1.5-3.211-1.967-4.256-.844 2.033-1.433 3.4-1.756 4.1-.211.444-.456.689-.744.744h1.267c-.122 0-.189-.133-.189-.3a1.433 1.433 0 0 1 .133-.522l.356-.9h1.722l.422 1.033a1.356 1.356 0 0 1 .078.367.311.311 0 0 1-.211.322h1.389c-.145-.033-.334-.244-.5-.588zm-2.778-1.422.744-1.789.778 1.8z" transform="translate(6.113 5.089)"/>
            <path id="Path_11799" data-name="Path 11799" class="cls-2" d="M65.4 74.814a78.302 78.302 0 0 1-.189-4.189 79.78 79.78 0 0 1-2.144 3.933c-.344-.6-.711-1.267-1.111-1.989l-1.044-2q-.067 2.222-.233 4.233a.9.9 0 0 1-.133.433.544.544 0 0 1-.378.244 12.85 12.85 0 0 1 1.322 0c-.289 0-.433-.256-.444-.656s0-.756 0-1.278V72.27c.811 1.489 1.4 2.611 1.778 3.333.567-1.111 1.111-2.222 1.756-3.333 0 1.022.067 1.844.067 2.478a.967.967 0 0 1-.122.489.489.489 0 0 1-.356.244h1.6a.667.667 0 0 1-.369-.667z" transform="translate(6.683 5.086)"/>
            <path id="Path_11800" data-name="Path 11800" d="M65.169 24.8c-7.111.889-15.478 3.767-15.878 11.111a17.344 17.344 0 0 0 2.078 8.889c-3.089-3.078-6.822-5.4-13.789-4.933a19.911 19.911 0 0 1 10.711 5.922 3.433 3.433 0 0 1 1.109 2.467c-.3 1.456-2.944 1.111-4.544 1.233 2.411 1.256 7.044 3.789 11.789 3.633a3.744 3.744 0 0 0 3.933-4.244c-.333-4.856-4.044-8.689-4.444-14.178-.411-6.178 4.211-8.778 9.033-9.8z" transform="translate(4.173)" style="fill:url(#linear-gradient)"/>
        </g>
    </g>
</svg>
