<svg xmlns="http://www.w3.org/2000/svg" xmlns:xlink="http://www.w3.org/1999/xlink" width="152" height="100" viewBox="0 0 152 100">
    <defs>
        <linearGradient id="linear-gradient" x1=".501" y1="1.005" x2=".501" y2=".003" gradientUnits="objectBoundingBox">
            <stop offset="0" stop-color="#ec683b"/>
            <stop offset=".33" stop-color="#f28f3f"/>
            <stop offset=".72" stop-color="#fcc610"/>
            <stop offset=".8" stop-color="#fcc914"/>
            <stop offset=".88" stop-color="#fcd21f"/>
            <stop offset=".95" stop-color="#fbe132"/>
            <stop offset="1" stop-color="#fbee43"/>
        </linearGradient>
        <linearGradient id="linear-gradient-2" x1=".502" y1=".999" x2=".502" y2="0" xlink:href="#linear-gradient"/>
        <linearGradient id="linear-gradient-3" x1=".501" y1="1" x2=".501" y2="0" xlink:href="#linear-gradient"/>
        <linearGradient id="linear-gradient-4" x1=".501" y1="1" x2=".501" y2="0" xlink:href="#linear-gradient"/>
        <linearGradient id="linear-gradient-5" x1=".5" y1="1" x2=".5" y2="0" xlink:href="#linear-gradient"/>
        <linearGradient id="linear-gradient-6" x1=".502" y1="1" x2=".502" y2="0" xlink:href="#linear-gradient"/>
        <linearGradient id="linear-gradient-7" x1=".5" y1="1" x2=".5" y2="0" xlink:href="#linear-gradient"/>
        <linearGradient id="linear-gradient-8" x1=".505" y1="1" x2=".505" y2="0" xlink:href="#linear-gradient"/>
        <linearGradient id="linear-gradient-9" x1=".5" y1=".999" x2=".5" y2="0" xlink:href="#linear-gradient"/>
        <linearGradient id="linear-gradient-10" x1=".503" y1=".999" x2=".503" y2=".001" xlink:href="#linear-gradient"/>
        <linearGradient id="linear-gradient-11" x1=".5" y1=".998" x2=".5" y2="-.002" xlink:href="#linear-gradient"/>
        <linearGradient id="linear-gradient-12" x1=".502" y1="1" x2=".502" y2=".002" xlink:href="#linear-gradient"/>
        <linearGradient id="linear-gradient-13" x1=".501" y1=".998" x2=".501" y2="0" xlink:href="#linear-gradient"/>
        <linearGradient id="linear-gradient-14" x1=".503" y1="1" x2=".503" y2="0" xlink:href="#linear-gradient"/>
        <linearGradient id="linear-gradient-15" x1=".493" y1=".997" x2=".493" y2="-.006" xlink:href="#linear-gradient"/>
        <linearGradient id="linear-gradient-16" x1=".506" y1=".999" x2=".506" y2=".001" xlink:href="#linear-gradient"/>
        <linearGradient id="linear-gradient-17" x1=".501" y1="1" x2=".501" y2="-.004" xlink:href="#linear-gradient"/>
        <linearGradient id="linear-gradient-18" x1=".5" y1=".992" x2=".5" y2="0" xlink:href="#linear-gradient"/>
        <linearGradient id="linear-gradient-19" x1=".501" y1="1.005" x2=".501" y2=".003" xlink:href="#linear-gradient"/>
        <linearGradient id="linear-gradient-20" x1=".498" y1=".994" x2=".498" y2=".001" xlink:href="#linear-gradient"/>
        <linearGradient id="linear-gradient-21" x1="0" y1=".501" x2="1.001" y2=".501" xlink:href="#linear-gradient"/>
        <filter id="Rectangle_1485" x="0" y="0" width="152" height="100" filterUnits="userSpaceOnUse">
            <feOffset dy="3"/>
            <feGaussianBlur stdDeviation="3" result="blur"/>
            <feFlood flood-opacity=".161"/>
            <feComposite operator="in" in2="blur"/>
            <feComposite in="SourceGraphic"/>
        </filter>
        <style>
            .cls-5{fill:#fff}.cls-2{opacity:.3}.cls-3{fill:#724c9e}
        </style>
    </defs>
    <g id="Group_8431" data-name="Group 8431" transform="translate(-419.516 6)">
        <g id="Vinpearl_Web_Logos-08" data-name="Vinpearl Web Logos-08" transform="translate(449.515 -6.98)">
            <g id="Group_8444" data-name="Group 8444" class="cls-2" transform="translate(38.785 61.006)">
                <path id="Path_11649" data-name="Path 11649" d="M47.472 75.519a5.553 5.553 0 0 1-3.989-1.49 5.146 5.146 0 0 1-1.573-3.906 5.868 5.868 0 0 1 1.749-4.341 6.062 6.062 0 0 1 4.387-1.712 5.646 5.646 0 0 1 4.026 1.481 5.3 5.3 0 0 1 1.61 4.008 5.868 5.868 0 0 1-1.777 4.313 6.127 6.127 0 0 1-4.433 1.647zm.509-5.849z" transform="translate(-41.906 -64.066)"/>
            </g>
            <path id="Path_11650" data-name="Path 11650" d="M47.241 74.677a5.313 5.313 0 0 1-3.832-1.444 4.915 4.915 0 0 1-1.5-3.7 5.646 5.646 0 0 1 1.675-4.174 5.859 5.859 0 0 1 4.23-1.647 5.553 5.553 0 0 1 3.869 1.416 5.1 5.1 0 0 1 1.536 3.795 5.553 5.553 0 0 1-1.7 4.146 5.9 5.9 0 0 1-4.276 1.61zm.472-5.822a.861.861 0 0 0-.278.694.555.555 0 0 0 .111-.111.926.926 0 0 0 .167-.583z" transform="translate(-3.12 -3.033)"/>
            <g id="Group_8445" data-name="Group 8445" class="cls-2" transform="translate(47.949 61.321)">
                <path id="Path_11651" data-name="Path 11651" d="M61.241 75.544H58.6a1.749 1.749 0 0 1-1.24-.528 1.731 1.731 0 0 1-1.24.528h-2.58a1.768 1.768 0 0 1-1.324-.611 1.74 1.74 0 0 1-.389-1.4l1.166-7.4a1.74 1.74 0 0 1 1.768-1.481h2.509a1.851 1.851 0 0 1 .592.1 4.628 4.628 0 0 1 1.759-.342 4.119 4.119 0 0 1 2.989 1.1 4.054 4.054 0 0 1 1.175 3 10.967 10.967 0 0 1-.157 1.527 1.211 1.211 0 0 1 0 .139l-.62 3.9a1.74 1.74 0 0 1-1.768 1.472z" transform="translate(-51.806 -64.406)"/>
            </g>
            <path id="Path_11652" data-name="Path 11652" d="M61 74.7h-2.629a1.509 1.509 0 0 1-1.139-.519 1.24 1.24 0 0 1-.1-.129 1.518 1.518 0 0 1-1.24.657h-2.583a1.509 1.509 0 0 1-1.49-1.74l1.175-7.4a1.5 1.5 0 0 1 1.49-1.277h2.508a1.527 1.527 0 0 1 .6.13 4.137 4.137 0 0 1 1.8-.417 3.9 3.9 0 0 1 2.777 1.074 3.785 3.785 0 0 1 1.1 2.777 10.458 10.458 0 0 1-.176 1.536 2.5 2.5 0 0 1-.074.361l-.555 3.7A1.509 1.509 0 0 1 61 74.7zm-3.462-6.072z" transform="translate(-3.857 -3.054)"/>
            <g id="Group_8446" data-name="Group 8446" class="cls-2" transform="translate(10.69 57.911)">
                <path id="Path_11653" data-name="Path 11653" d="M15.909 75.214h-2.637a1.74 1.74 0 0 1-1.305-.611 1.777 1.777 0 0 1-.4-1.4l1.175-7.4a1.675 1.675 0 0 1 .37-.824 3.249 3.249 0 0 1-.222-1.138 3.064 3.064 0 0 1 .926-2.212 3.221 3.221 0 0 1 4.48 0 3.017 3.017 0 0 1 .926 2.2 3.11 3.11 0 0 1-.462 1.671 1.768 1.768 0 0 1 .065.824l-1.166 7.4a1.731 1.731 0 0 1-1.749 1.49zm.12-11.69a.426.426 0 0 0-.222.093.324.324 0 0 0 0 .481.416.416 0 0 0 .2.083.38.38 0 0 0 .231-.1.361.361 0 0 0 .1-.241.37.37 0 0 0-.1-.231.454.454 0 0 0-.213-.083z" transform="translate(-11.55 -60.721)"/>
            </g>
            <path id="Path_11654" data-name="Path 11654" d="M15.667 74.372h-2.628a1.509 1.509 0 0 1-1.49-1.74l1.175-7.4a1.481 1.481 0 0 1 .407-.824 2.906 2.906 0 0 1 .611-3.212 2.989 2.989 0 0 1 4.156 0 2.777 2.777 0 0 1 .824 2.045 2.841 2.841 0 0 1-.491 1.629 1.536 1.536 0 0 1 .1.814l-1.175 7.4a1.49 1.49 0 0 1-1.489 1.288zM14.39 63.266z" transform="translate(-.859 -2.783)"/>
            <g id="Group_8447" data-name="Group 8447" class="cls-2" transform="translate(15.056 61.321)">
                <path id="Path_11655" data-name="Path 11655" d="M25.7 75.525h-2.627A1.731 1.731 0 0 1 21.832 75a1.768 1.768 0 0 1-1.249.528H18.01a1.74 1.74 0 0 1-1.722-2.008l1.175-7.4a1.731 1.731 0 0 1 1.712-1.462h2.508a1.851 1.851 0 0 1 .6.1 4.5 4.5 0 0 1 1.749-.342 4.156 4.156 0 0 1 3 1.1 4.054 4.054 0 0 1 1.175 3 10.968 10.968 0 0 1-.157 1.509v.139l-.611 3.9a1.731 1.731 0 0 1-1.74 1.472z" transform="translate(-16.267 -64.406)"/>
            </g>
            <path id="Path_11656" data-name="Path 11656" d="M25.461 74.68h-2.62a1.509 1.509 0 0 1-1.148-.5.657.657 0 0 1-.093-.13 1.518 1.518 0 0 1-1.249.657h-2.572a1.509 1.509 0 0 1-1.49-1.74l1.166-7.4a1.518 1.518 0 0 1 1.49-1.277h2.508a1.462 1.462 0 0 1 .6.129A4.193 4.193 0 0 1 23.8 64a3.869 3.869 0 0 1 2.832 1.037 3.785 3.785 0 0 1 1.1 2.777 10.079 10.079 0 0 1-.148 1.49 2.5 2.5 0 0 1-.074.361l-.565 3.7a1.5 1.5 0 0 1-1.484 1.315zm-3.424-6.053z" transform="translate(-1.212 -3.054)"/>
            <path id="Path_11657" data-name="Path 11657" class="cls-3" d="M25.017 73.036h-2.629a.333.333 0 0 1-.231-.1.315.315 0 0 1-.065-.25l.639-4.082a1.2 1.2 0 0 1 0-.194v-.222a.713.713 0 0 0-.148-.5.768.768 0 0 0-.555-.167.926.926 0 0 0-.824.37 3.221 3.221 0 0 0-.5 1.425l-.528 3.462a.315.315 0 0 1-.305.259h-2.545a.3.3 0 0 1-.3-.352l1.166-7.4a.305.305 0 0 1 .305-.259h2.508a.305.305 0 0 1 .231.111.333.333 0 0 1 .074.25v.2a3.286 3.286 0 0 1 .62-.435 2.906 2.906 0 0 1 1.47-.362 2.777 2.777 0 0 1 1.99.694 2.6 2.6 0 0 1 .74 1.971 9.884 9.884 0 0 1-.139 1.305.972.972 0 0 1 0 .185l-.657 3.832a.315.315 0 0 1-.315.259zm-2.268-.648h2.008l.574-3.7a9.9 9.9 0 0 0 .13-1.2 2.018 2.018 0 0 0-.555-1.527 2.129 2.129 0 0 0-1.564-.528 2.268 2.268 0 0 0-1.166.287 4.082 4.082 0 0 0-1.129 1 .3.3 0 0 1-.361.083.305.305 0 0 1-.185-.324l.13-.805h-1.852l-1.092 6.719h1.962l.491-3.212a3.628 3.628 0 0 1 .62-1.712 1.564 1.564 0 0 1 1.305-.592 1.361 1.361 0 0 1 .972.324 1.24 1.24 0 0 1 .342.926v.666z" transform="translate(-1.268 -3.113)"/>
            <path id="Path_11658" data-name="Path 11658" d="M25.111 72.863h-3.248l.676-4.424a1.324 1.324 0 0 1 0-.2v-.222a.74.74 0 0 0-.148-.5.777.777 0 0 0-.555-.167.981.981 0 0 0-.824.37 3.119 3.119 0 0 0-.491 1.425l-.574 3.7H16.8l1.268-8.024H21.2l-.083.555a3.48 3.48 0 0 1 .611-.426 2.841 2.841 0 0 1 1.462-.37 2.777 2.777 0 0 1 2 .7 2.619 2.619 0 0 1 .74 1.971 10.043 10.043 0 0 1-.139 1.305.5.5 0 0 1-.046.194zm-2.527-.611h2l.6-3.785a9.625 9.625 0 0 0 .13-1.194 2.055 2.055 0 0 0-.555-1.536 2.157 2.157 0 0 0-1.573-.528 2.267 2.267 0 0 0-1.157.3 4.035 4.035 0 0 0-1.138.99l-.713.879.3-1.925h-1.855l-1.074 6.8h1.962L20 69.05a3.8 3.8 0 0 1 .62-1.712 1.6 1.6 0 0 1 1.305-.6 1.323 1.323 0 0 1 .972.333 1.231 1.231 0 0 1 .352.926 1.962 1.962 0 0 1 0 .315v.2z" transform="translate(-1.251 -3.097)"/>
            <path id="Path_11659" data-name="Path 11659" d="m17 72.385 1.175-7.4H20.7l-.185 1.166a4.341 4.341 0 0 1 1.212-1.074 2.675 2.675 0 0 1 1.324-.324 2.434 2.434 0 0 1 1.777.611 2.3 2.3 0 0 1 .648 1.749 10.7 10.7 0 0 1-.148 1.277 1.213 1.213 0 0 0 0 .139l-.62 3.859h-2.627l.62-3.934a.65.65 0 0 1 .056-.324c.056-.1 0-.213 0-.287a1 1 0 0 0-.25-.731 1.092 1.092 0 0 0-.759-.25 1.323 1.323 0 0 0-1.046.528 3.545 3.545 0 0 0-.555 1.564l-.547 3.431z" transform="translate(-1.266 -3.11)" style="fill:url(#linear-gradient)"/>
            <path id="Path_11660" data-name="Path 11660" class="cls-5" d="m22.473 72.145.555-3.582v-.305a2.841 2.841 0 0 0 0-.352 1.24 1.24 0 0 0-.342-.926 1.361 1.361 0 0 0-.972-.333 1.583 1.583 0 0 0-1.314.611 3.7 3.7 0 0 0-.611 1.7l-.5 3.212H17.41l1.074-6.8h1.851l-.305 1.916.722-.87a3.9 3.9 0 0 1 1.12-1 2.332 2.332 0 0 1 1.175-.287 2.11 2.11 0 0 1 1.564.528 1.99 1.99 0 0 1 .555 1.527 10.181 10.181 0 0 1-.13 1.212v.139l-.6 3.61z" transform="translate(-1.296 -3.138)"/>
            <path id="Path_11661" data-name="Path 11661" d="m22.311 71.844.546-3.508v-.305a2.129 2.129 0 0 0 0-.324 1.3 1.3 0 0 0-.37-1 1.416 1.416 0 0 0-1.009-.342 1.657 1.657 0 0 0-1.361.629 3.767 3.767 0 0 0-.555 1.7l-.481 3.156H17.23l1.055-6.682h1.759l-.324 2.073.86-1.041a4.026 4.026 0 0 1 1.1-.981 2.342 2.342 0 0 1 1.148-.278 2.082 2.082 0 0 1 1.527.509 1.953 1.953 0 0 1 .537 1.481 8.858 8.858 0 0 1-.139 1.2v.139l-.565 3.582z" transform="translate(-1.283 -3.124)" style="fill:url(#linear-gradient-2)"/>
            <g id="Group_8448" data-name="Group 8448" class="cls-2" transform="translate(24.377 58.214)">
                <path id="Path_11662" data-name="Path 11662" d="M39.057 75.294h-2.943a1.749 1.749 0 0 1-1.5-.861 1.721 1.721 0 0 1-1.5.861h-3.063a1.749 1.749 0 0 1-1.712-1.425L26.368 63.1a1.749 1.749 0 0 1 .37-1.435 1.768 1.768 0 0 1 1.333-.62h2.86a1.74 1.74 0 0 1 1.684 1.3l.046-.12a1.731 1.731 0 0 1 1.694-1.185H37a1.74 1.74 0 0 1 1.722 1.5v.259l.231-.639a1.74 1.74 0 0 1 1.629-1.12h3.028a1.74 1.74 0 0 1 1.6 2.406L40.658 74.22a1.731 1.731 0 0 1-1.601 1.074zm-3.7-10.125h.176v-.389z" transform="translate(-26.338 -61.049)"/>
            </g>
            <path id="Path_11663" data-name="Path 11663" d="M38.825 74.451h-2.943a1.509 1.509 0 0 1-1.527-1.277l-.074.241a1.509 1.509 0 0 1-1.435 1.037h-3.027a1.5 1.5 0 0 1-1.481-1.231l-1.98-10.774a1.49 1.49 0 0 1 .324-1.231 1.518 1.518 0 0 1 1.194-.546h2.86a1.518 1.518 0 0 1 1.5 1.3l.1.768.342-1.027a1.518 1.518 0 0 1 1.435-1.037h2.647a1.518 1.518 0 0 1 1.49 1.305l.157 1.166.574-1.5a1.509 1.509 0 0 1 1.407-.926h2.943a1.518 1.518 0 0 1 1.249.676 1.49 1.49 0 0 1 .139 1.416l-4.506 10.715a1.5 1.5 0 0 1-1.388.926zm-1.638-3.008h.629l.148-.342a1.454 1.454 0 0 1-.444 0 1.185 1.185 0 0 1-.4-.093zm-6.118 0h.722l.1-.324a1.342 1.342 0 0 1-.315.037A1.527 1.527 0 0 1 31 70.99zm3.924-6.655h.213a1.481 1.481 0 0 1 .361.1l-.157-1.212h-.241l-.379 1.111z" transform="translate(-1.961 -2.806)"/>
            <path id="Path_11664" data-name="Path 11664" class="cls-3" d="M38.372 72.8h-2.943l-.3-.259-.722-5.035v.111l-1.62 4.961-.287.213h-3.134l-.3-.25L27.09 61.79a.324.324 0 0 1 .065-.259.342.342 0 0 1 .241-.111h2.86l.305.268.824 5.822a.463.463 0 0 1 0-.12l1.907-5.748.287-.213h2.684a.305.305 0 0 1 .305.268l.8 5.812v.074c0 .074 0-.13.065-.194l2.167-5.747.287-.2h2.98a.305.305 0 0 1 .259.139.315.315 0 0 1 0 .287l-4.47 10.755zm-2.672-.607h2.471l4.257-10.181h-2.316l-2.1 5.553q-.222.648-.333 1c-.074.25-.13.463-.176.666a.3.3 0 0 1-.6-.056v-.731a8.979 8.979 0 0 0-.1-.926l-.75-5.553h-2.2l-1.851 5.553a1.847 1.847 0 0 1-.12.389l-.111.342c-.074.268-.167.592-.241.926a.324.324 0 0 1-.324.241.305.305 0 0 1-.278-.3 3.289 3.289 0 0 0-.056-.722 9.082 9.082 0 0 1-.1-.926l-.8-5.553h-2.225L29.6 72.1h2.592l1.555-4.757c.074-.222.157-.481.231-.759V66.5c.074-.268.148-.555.231-.833a.324.324 0 0 1 .342-.222.305.305 0 0 1 .259.305v.722l.12.926z" transform="translate(-2.017 -2.862)"/>
            <path id="Path_11665" data-name="Path 11665" d="M38.41 72.633h-3.415l-.777-5.285v.12l-1.694 5.165h-3.582L26.85 61.259h3.5l.87 6.062v-.13l1.98-5.951h3.138l.833 6.09a.176.176 0 0 1 0 .074 1.592 1.592 0 0 0 .065-.194l2.249-5.951h3.7zm-2.888-.611H38l4.248-10.181h-2.3l-2.092 5.553q-.231.639-.333 1a4.7 4.7 0 0 0-.176.657l-.509 2.268L36.735 69a4.031 4.031 0 0 0-.046-.731c-.046-.259-.056-.546-.1-.926l-.74-5.553H33.68l-1.851 5.553-.148.491-.074.241c-.074.278-.167.6-.25.926l-.5 2.212-.1-2.258v-.731a9.258 9.258 0 0 0-.1-.926l-.787-5.553h-2.28l1.851 10.181h2.592l1.555-4.748c.074-.231.157-.481.231-.759l.074-.259c.056-.213.111-.435.176-.666l.6-2.1v2.989l.111.926z" transform="translate(-1.999 -2.849)"/>
            <path id="Path_11666" data-name="Path 11666" d="M29.061 72.193 27.09 61.42h2.86l.824 5.8c.046.361.083.666.1.926s.046.509.065.731a8.6 8.6 0 0 1 .25-.926c.083-.25.157-.537.222-.74l1.907-5.748h2.647l.787 5.8a8.319 8.319 0 0 0 .1.926 6.738 6.738 0 0 1 0 .75c.046-.2.1-.426.176-.676s.185-.583.342-1.027l2.175-5.748h2.98l-4.415 10.7h-2.986l-.713-5.007a6.616 6.616 0 0 0-.12-.926 5.052 5.052 0 0 1 0-.75q-.139.472-.25.926a19.79 19.79 0 0 1-.241.768l-1.629 4.97z" transform="translate(-2.017 -2.862)" style="fill:url(#linear-gradient-3)"/>
            <path id="Path_11667" data-name="Path 11667" class="cls-5" d="m35.423 71.911-.7-4.748a1.452 1.452 0 0 0-.065-.537v-1.064l-.6-.083c-.074.231-.13.472-.194.694l-.056.222c-.083.278-.157.537-.231.75l-1.564 4.767h-2.662L27.5 61.73h2.231l.8 5.553c0 .342.074.648.093.926v.074a2.928 2.928 0 0 0 .046.648l.611.056c.074-.352.167-.676.241-.926l.093-.3c.046-.157.093-.3.139-.426l1.846-5.549h2.157l.75 5.553a8.845 8.845 0 0 0 .1.926 5.917 5.917 0 0 1 0 .7l.611.093c.056-.241.111-.454.176-.657s.176-.574.333-1.009l2.092-5.553h2.314l-4.248 10.183z" transform="translate(-2.048 -2.885)"/>
            <path id="Path_11668" data-name="Path 11668" d="m35.241 71.613-.694-4.692c0-.194-.111-.926-.111-.926v-.7l-.722-.1q-.111.361-.194.694l-.065.231a7.91 7.91 0 0 1-.231.74l-1.574 4.753h-2.5L27.3 61.58h2.092l.787 5.488c0 .342.083.648.1.926v.083a2.97 2.97 0 0 0 .046.648l.731.056c.074-.342.167-.666.241-.926l.093-.3a1.27 1.27 0 0 1 .13-.426l1.851-5.5h2.055l.74 5.488c0 .333.083.639.1.879s0 .481 0 .7L37 68.8a5.489 5.489 0 0 1 .167-.648c.074-.241.185-.574.342-1.009l2.073-5.553h2.249L37.62 71.613z" transform="translate(-2.033 -2.874)" style="fill:url(#linear-gradient-4)"/>
            <g id="Group_8449" data-name="Group 8449" class="cls-2" transform="translate(0 58.169)">
                <path id="Path_11669" data-name="Path 11669" d="M7.1 75.235H4.628a1.721 1.721 0 0 1-1.7-1.277L.056 63.175A1.74 1.74 0 0 1 1.74 61h3.054a1.731 1.731 0 0 1 1.684 1.361l.435 2L8.015 62A1.722 1.722 0 0 1 9.6 61h3.2a1.731 1.731 0 0 1 1.536 2.545l-5.7 10.764a1.749 1.749 0 0 1-1.536.926z" transform="translate(0 -61)"/>
            </g>
            <path id="Path_11670" data-name="Path 11670" d="M6.869 74.391H4.37a1.509 1.509 0 0 1-1.453-1.12L.057 62.507a1.509 1.509 0 0 1 1.453-1.851h3.054A1.509 1.509 0 0 1 6.036 61.8l.574 2.675L8 61.48a1.527 1.527 0 0 1 1.37-.87h3.2a1.509 1.509 0 0 1 1.314 2.212L8.2 73.586a1.5 1.5 0 0 1-1.331.805zm-1.314-3.008h.435l.2-.389h-.339a1.287 1.287 0 0 1-.463-.139z" transform="translate(-.001 -2.802)"/>
            <path id="Path_11671" data-name="Path 11671" class="cls-3" d="M6.414 72.743H3.925a.305.305 0 0 1-.305-.231L.759 61.747a.352.352 0 0 1 .056-.268.3.3 0 0 1 .241-.111H4.11a.305.305 0 0 1 .305.241l1.315 6.154a.175.175 0 0 1 .046-.12l2.851-6.127a.315.315 0 0 1 .273-.176h3.184a.305.305 0 0 1 .268.444l-5.66 10.792a.315.315 0 0 1-.278.167zm-2.258-.611h2.073l5.377-10.181H9.117L6.34 67.893a5.079 5.079 0 0 0-.194.5c-.093.222-.185.472-.278.722a.305.305 0 0 1-.592-.074 6.215 6.215 0 0 0-.065-.676 3.227 3.227 0 0 0-.093-.5l-1.249-5.914H1.454z" transform="translate(-.056 -2.856)"/>
            <path id="Path_11672" data-name="Path 11672" d="M6.432 72.575H3.507L.49 61.2h3.7l1.4 6.4a.564.564 0 0 0 0-.1l2.961-6.3h3.906zm-2.443-.611h2.073l5.377-10.181H8.94l-2.776 5.951c-.056.12-.12.278-.194.491s-.185.472-.268.722l-.472 1.361-.13-1.426a5.99 5.99 0 0 0-.065-.676c-.019-.185-.056-.361-.083-.509l-1.213-5.886H1.286z" transform="translate(-.036 -2.846)"/>
            <path id="Path_11673" data-name="Path 11673" d="M3.61 72.134.75 61.37H3.8l1.324 6.136c0 .157.065.324.083.528a3.207 3.207 0 0 0 .074.685c.093-.259.176-.509.268-.731l.2-.481L8.6 61.389h3.2L6.1 72.134z" transform="translate(-.056 -2.859)" style="fill:url(#linear-gradient-5)"/>
            <path id="Path_11674" data-name="Path 11674" class="cls-5" d="M3.883 71.851 1.18 61.67h2.406l1.268 5.914a4.627 4.627 0 0 1 .083.5 2.312 2.312 0 0 0 .074.676l.592.074c.093-.259.176-.5.268-.713s.148-.389.2-.518l2.782-5.933h2.5L5.974 71.851z" transform="translate(-.088 -2.881)"/>
            <path id="Path_11675" data-name="Path 11675" d="M3.693 71.553 1 61.52h2.3l1.259 5.868a4.628 4.628 0 0 1 .083.5 2.527 2.527 0 0 0 .065.666l.713.093c.093-.25.176-.491.268-.7l.2-.528 2.777-5.9H11L5.7 71.552z" transform="translate(-.074 -2.87)" style="fill:url(#linear-gradient-6)"/>
            <path id="Path_11676" data-name="Path 11676" class="cls-3" d="M15.224 72.723h-2.638a.333.333 0 0 1-.231-.1.315.315 0 0 1-.065-.25l1.166-7.4a.305.305 0 0 1 .305-.25h2.629a.333.333 0 0 1 .241.1.3.3 0 0 1 .065.25l-1.166 7.4a.315.315 0 0 1-.306.25zm-2.277-.611h2.018l1.074-6.8H14.02zm2.406-7.6A1.724 1.724 0 1 1 16.575 64a1.7 1.7 0 0 1-1.222.509zm0-2.777a1.055 1.055 0 0 0-.777.315 1.037 1.037 0 0 0-.315.768 1.064 1.064 0 0 0 .315.787 1.1 1.1 0 0 0 1.564 0 1.083 1.083 0 0 0-.787-1.851z" transform="translate(-.915 -2.837)"/>
            <path id="Path_11677" data-name="Path 11677" d="M15.318 72.559H12.06l1.268-8.024h3.3zm-2.536-.611h2l1.074-6.8h-2zm2.4-7.6a1.62 1.62 0 0 1-1.2-.509 1.721 1.721 0 0 1 2.434-2.425 1.62 1.62 0 0 1 .5 1.212 1.694 1.694 0 0 1-.5 1.212 1.721 1.721 0 0 1-1.231.509zm0-2.777a1.092 1.092 0 0 0-1.092 1.092 1.064 1.064 0 0 0 .324.777 1.083 1.083 0 0 0 1.564 0 1.037 1.037 0 0 0 .315-.777 1.009 1.009 0 0 0-.315-.777 1.037 1.037 0 0 0-.8-.352z" transform="translate(-.898 -2.83)"/>
            <path id="Path_11678" data-name="Path 11678" d="M13.641 62.477a1.407 1.407 0 0 1 1.4-1.4 1.37 1.37 0 0 1 1.018.4 1.333 1.333 0 0 1 .407 1 1.361 1.361 0 0 1-.407 1 1.4 1.4 0 0 1-1.018.426 1.333 1.333 0 0 1-.981-.426 1.351 1.351 0 0 1-.416-1zm-1.361 9.635 1.175-7.4h2.629l-1.166 7.4z" transform="translate(-.914 -2.837)" style="fill:url(#linear-gradient-7)"/>
            <path id="Path_11679" data-name="Path 11679" class="cls-5" d="m12.67 71.831 1.074-6.8h2.008l-1.064 6.8zm2.4-8.219a1.037 1.037 0 0 1-.768-.324 1.074 1.074 0 0 1-.315-.787 1.037 1.037 0 0 1 .315-.768 1.055 1.055 0 0 1 .768-.324 1.037 1.037 0 0 1 .8.305 1.018 1.018 0 0 1 .324.787 1.046 1.046 0 0 1-.324.787 1.1 1.1 0 0 1-.8.324z" transform="translate(-.943 -2.861)"/>
            <path id="Path_11680" data-name="Path 11680" d="m12.51 71.532 1.055-6.682h1.851l-1.055 6.682zm2.3-8.21a1.046 1.046 0 0 1 0-2.082 1.012 1.012 0 0 1 1.046 1.027.981.981 0 0 1-.3.74 1.018 1.018 0 0 1-.741.315z" transform="translate(-.931 -2.849)" style="fill:url(#linear-gradient-8)"/>
            <path id="Path_11681" data-name="Path 11681" class="cls-3" d="M46.8 73.029a4.193 4.193 0 0 1-3-1.083 3.8 3.8 0 0 1-1.138-2.878 4.5 4.5 0 0 1 1.314-3.323 4.73 4.73 0 0 1 3.387-1.305 4.3 4.3 0 0 1 3.017 1.092 3.859 3.859 0 0 1 1.166 2.925 4.369 4.369 0 0 1-1.346 3.276 4.72 4.72 0 0 1-3.4 1.296zm.565-7.978a4.119 4.119 0 0 0-2.952 1.129 3.887 3.887 0 0 0-1.138 2.888A3.156 3.156 0 0 0 44.2 71.5a3.582 3.582 0 0 0 2.573.926 4.156 4.156 0 0 0 3.008-1.12 3.813 3.813 0 0 0 1.157-2.841 3.249 3.249 0 0 0-.972-2.471 3.637 3.637 0 0 0-2.605-.943zm-.463 5.84a1.684 1.684 0 0 1-1.249-.481 1.8 1.8 0 0 1-.481-1.314 2.61 2.61 0 0 1 .611-1.759 1.9 1.9 0 0 1 1.527-.759 1.694 1.694 0 0 1 1.286.5 1.74 1.74 0 0 1 .481 1.3 2.777 2.777 0 0 1-.546 1.8 1.99 1.99 0 0 1-1.629.722zm.407-3.7a1.3 1.3 0 0 0-1.055.537 2.036 2.036 0 0 0-.5 1.37 1.212 1.212 0 0 0 .305.926 1.092 1.092 0 0 0 .814.305 1.407 1.407 0 0 0 1.12-.509 2.147 2.147 0 0 0 .444-1.4 1.166 1.166 0 0 0-.305-.861 1.092 1.092 0 0 0-.826-.37z" transform="translate(-3.176 -3.087)"/>
            <path id="Path_11682" data-name="Path 11682" d="M46.668 72.859a4.119 4.119 0 0 1-2.989-1.083A3.748 3.748 0 0 1 42.54 68.9a4.443 4.443 0 0 1 1.314-3.313 4.628 4.628 0 0 1 3.387-1.305 4.267 4.267 0 0 1 3.045 1.092 3.832 3.832 0 0 1 1.166 2.915 4.443 4.443 0 0 1-1.342 3.286 4.72 4.72 0 0 1-3.443 1.287zm.574-7.969a4.1 4.1 0 0 0-2.962 1.13 3.841 3.841 0 0 0-1.13 2.88 3.138 3.138 0 0 0 .926 2.434 3.545 3.545 0 0 0 2.573.926 4.174 4.174 0 0 0 3.017-1.12 3.767 3.767 0 0 0 1.157-2.84 3.258 3.258 0 0 0-.981-2.471 3.637 3.637 0 0 0-2.638-.935zm-.472 5.84a1.712 1.712 0 0 1-1.249-.491 1.851 1.851 0 0 1-.472-1.305 2.693 2.693 0 0 1 .6-1.768 1.916 1.916 0 0 1 1.527-.759 1.731 1.731 0 0 1 1.3.509 1.768 1.768 0 0 1 .481 1.286 2.777 2.777 0 0 1-.592 1.8 2 2 0 0 1-1.629.731zm.407-3.7a1.305 1.305 0 0 0-1.055.528 2.055 2.055 0 0 0-.463 1.379 1.212 1.212 0 0 0 .305.926 1.064 1.064 0 0 0 .805.305 1.4 1.4 0 0 0 1.083-.592 2.194 2.194 0 0 0 .454-1.407 1.185 1.185 0 0 0-.315-.861 1.111 1.111 0 0 0-.851-.278z" transform="translate(-3.167 -3.075)"/>
            <path id="Path_11683" data-name="Path 11683" d="M47 66.578a1.61 1.61 0 0 0-1.3.648 2.342 2.342 0 0 0-.537 1.564 1.518 1.518 0 0 0 .389 1.092 1.4 1.4 0 0 0 1.037.4 1.712 1.712 0 0 0 1.351-.611 2.517 2.517 0 0 0 .518-1.6 1.481 1.481 0 0 0-.4-1.083 1.407 1.407 0 0 0-1.058-.41zm-4.34 2.184a4.137 4.137 0 0 1 1.24-3.1 4.313 4.313 0 0 1 3.165-1.222 4.008 4.008 0 0 1 2.841 1.009 3.573 3.573 0 0 1 1.064 2.693 4.109 4.109 0 0 1-1.249 3.073 4.443 4.443 0 0 1-3.221 1.2 3.85 3.85 0 0 1-2.777-1 3.471 3.471 0 0 1-1.046-2.656z" transform="translate(-3.176 -3.087)" style="fill:url(#linear-gradient-9)"/>
            <path id="Path_11684" data-name="Path 11684" class="cls-5" d="M46.518 72.128a3.573 3.573 0 0 1-2.573-.926 3.156 3.156 0 0 1-.926-2.434 3.832 3.832 0 0 1 1.111-2.86 4.063 4.063 0 0 1 2.952-1.129 3.637 3.637 0 0 1 2.629.926 3.239 3.239 0 0 1 .926 2.462 3.822 3.822 0 0 1-1.157 2.851 4.146 4.146 0 0 1-2.962 1.111zm.509-5.831a1.907 1.907 0 0 0-1.536.759 2.647 2.647 0 0 0-.6 1.759 1.851 1.851 0 0 0 .472 1.305 1.712 1.712 0 0 0 1.259.491 2 2 0 0 0 1.583-.722 2.777 2.777 0 0 0 .592-1.8 1.749 1.749 0 0 0-.481-1.3 1.712 1.712 0 0 0-1.286-.5z" transform="translate(-3.203 -3.112)"/>
            <path id="Path_11685" data-name="Path 11685" d="M46.282 71.837a3.443 3.443 0 0 1-2.527-.926 3.073 3.073 0 0 1-.926-2.388 3.748 3.748 0 0 1 1.083-2.814 4.017 4.017 0 0 1 2.907-1.109 3.591 3.591 0 0 1 2.592.926 3.184 3.184 0 0 1 .926 2.416 3.7 3.7 0 0 1-1.137 2.775 4.082 4.082 0 0 1-2.915 1.12zM46.791 66a1.981 1.981 0 0 0-1.583.824 2.7 2.7 0 0 0-.611 1.8 1.706 1.706 0 0 0 1.786 1.86 2.073 2.073 0 0 0 1.629-.74 2.851 2.851 0 0 0 .611-1.851 1.851 1.851 0 0 0-.509-1.342A1.74 1.74 0 0 0 46.791 66z" transform="translate(-3.189 -3.099)" style="fill:url(#linear-gradient-10)"/>
            <path id="Path_11686" data-name="Path 11686" class="cls-3" d="M60.547 73.056h-2.619a.278.278 0 0 1-.231-.111.287.287 0 0 1-.074-.241l.639-4.082v-.416a.676.676 0 0 0-.148-.5.74.74 0 0 0-.555-.167.926.926 0 0 0-.824.37 3.119 3.119 0 0 0-.491 1.425l-.5 3.462a.305.305 0 0 1-.305.259h-2.574a.315.315 0 0 1-.241-.111.287.287 0 0 1-.065-.241l1.166-7.4a.315.315 0 0 1 .305-.259h2.508a.319.319 0 0 1 .305.361v.195a3.637 3.637 0 0 1 .611-.426 2.925 2.925 0 0 1 1.462-.361 2.777 2.777 0 0 1 2 .694 2.638 2.638 0 0 1 .74 1.971 9.885 9.885 0 0 1-.139 1.305v.185l-.6 3.85a.305.305 0 0 1-.37.241zm-2.258-.611h2l.592-3.758a8.7 8.7 0 0 0 .139-1.2 2.018 2.018 0 0 0-.555-1.573 2.166 2.166 0 0 0-1.573-.528 2.314 2.314 0 0 0-1.166.287 3.933 3.933 0 0 0-1.129 1 .305.305 0 0 1-.537-.241l.13-.805h-1.853l-1.074 6.8h1.962l.491-3.212a3.7 3.7 0 0 1 .62-1.712 1.583 1.583 0 0 1 1.259-.583 1.36 1.36 0 0 1 .926.333 1.24 1.24 0 0 1 .342.926v.666z" transform="translate(-3.913 -3.114)"/>
            <path id="Path_11687" data-name="Path 11687" d="M60.641 72.884H57.4l.685-4.424a1.914 1.914 0 0 0 0-.2 1.713 1.713 0 0 0 0-.222.7.7 0 0 0-.157-.5.768.768 0 0 0-.546-.167.972.972 0 0 0-.731.379 3 3 0 0 0-.5 1.425l-.574 3.7H52.33l1.27-8.025h3.138l-.093.555a2.851 2.851 0 0 1 .62-.426 2.777 2.777 0 0 1 1.462-.37 2.712 2.712 0 0 1 1.99.7 2.619 2.619 0 0 1 .74 1.962 9.987 9.987 0 0 1-.177 1.329.805.805 0 0 1 0 .194zm-2.527-.611h2l.6-3.785a9.552 9.552 0 0 0 .13-1.2 2.018 2.018 0 0 0-.555-1.527 2.147 2.147 0 0 0-1.564-.528 2.3 2.3 0 0 0-1.148.3 3.887 3.887 0 0 0-1.129.99l-.722.926.305-1.925h-1.85l-1.074 6.8h1.953l.491-3.2a3.7 3.7 0 0 1 .629-1.724 1.573 1.573 0 0 1 1.305-.6 1.324 1.324 0 0 1 .926.333 1.249 1.249 0 0 1 .342.926v.515z" transform="translate(-3.897 -3.099)"/>
            <path id="Path_11688" data-name="Path 11688" d="m52.56 72.445 1.166-7.4h2.508l-.185 1.166a4.341 4.341 0 0 1 1.222-1.074 2.656 2.656 0 0 1 1.314-.324 2.471 2.471 0 0 1 1.786.611 2.342 2.342 0 0 1 .648 1.749 9.4 9.4 0 0 1-.139 1.259.527.527 0 0 1 0 .139l-.611 3.9h-2.674l.611-3.934.056-.333v-.278a.926.926 0 0 0-.25-.731 1.055 1.055 0 0 0-.759-.25 1.268 1.268 0 0 0-1.064.491A3.434 3.434 0 0 0 55.634 69l-.534 3.464z" transform="translate(-3.914 -3.114)" style="fill:url(#linear-gradient-11)"/>
            <path id="Path_11689" data-name="Path 11689" class="cls-5" d="m58.012 72.156.555-3.573v-.157a.7.7 0 0 1 0-.148v-.352a1.24 1.24 0 0 0-.342-.926 1.361 1.361 0 0 0-.926-.333 1.583 1.583 0 0 0-1.305.6 3.628 3.628 0 0 0-.62 1.712l-.491 3.2H52.94l1.074-6.793h1.851l-.3 1.916.713-.87a3.8 3.8 0 0 1 1.129-1 2.3 2.3 0 0 1 1.166-.287 2.129 2.129 0 0 1 1.573.528 2.018 2.018 0 0 1 .555 1.527 8.941 8.941 0 0 1-.139 1.212v.139l-.574 3.628z" transform="translate(-3.942 -3.14)"/>
            <path id="Path_11690" data-name="Path 11690" d="m57.841 71.863.546-3.508v-.629a1.324 1.324 0 0 0-.361-1 1.425 1.425 0 0 0-1.018-.342 1.629 1.629 0 0 0-1.351.62A3.647 3.647 0 0 0 55.1 68.7l-.491 3.156H52.76l1.055-6.682h1.768l-.324 2.073.851-1.047a3.915 3.915 0 0 1 1.111-.981 2.184 2.184 0 0 1 1.138-.278 2.082 2.082 0 0 1 1.527.509 1.934 1.934 0 0 1 .537 1.481 10.089 10.089 0 0 1-.13 1.2v.139l-.565 3.582z" transform="translate(-3.929 -3.124)" style="fill:url(#linear-gradient-12)"/>
            <g id="Group_8450" data-name="Group 8450" class="cls-2" transform="translate(57.472 57.623)">
                <path id="Path_11691" data-name="Path 11691" d="M66.755 75.533a4.359 4.359 0 0 1-3.434-1.62A5.377 5.377 0 0 1 62.1 70.3a6.34 6.34 0 0 1 1.546-4.332 5.211 5.211 0 0 1 4.072-1.851 4.7 4.7 0 0 1 1.092.12l.379-2.36a1.731 1.731 0 0 1 1.722-1.472h2.564a1.721 1.721 0 0 1 1.712 2.008L73.41 73.775a1.731 1.731 0 0 1-1.722 1.462h-2.471a1.713 1.713 0 0 1-.537-.083 4.924 4.924 0 0 1-1.925.379zm1.509-5.479z" transform="translate(-62.096 -60.41)"/>
            </g>
            <path id="Path_11692" data-name="Path 11692" d="M66.524 74.688a4.146 4.146 0 0 1-3.258-1.5 5.109 5.109 0 0 1-1.166-3.451 6.146 6.146 0 0 1 1.481-4.183 5.026 5.026 0 0 1 3.906-1.777 4.479 4.479 0 0 1 1.277.176l.426-2.684A1.509 1.509 0 0 1 70.679 60h2.564a1.509 1.509 0 0 1 1.49 1.74l-1.786 11.384a1.509 1.509 0 0 1-1.49 1.277h-2.471a1.342 1.342 0 0 1-.546-.111 4.554 4.554 0 0 1-1.916.398z" transform="translate(-4.624 -2.757)"/>
            <path id="Path_11693" data-name="Path 11693" class="cls-3" d="M66.068 73.012a2.925 2.925 0 0 1-2.332-1.074 3.98 3.98 0 0 1-.926-2.684 4.952 4.952 0 0 1 1.185-3.387A3.823 3.823 0 0 1 67 64.5a3.193 3.193 0 0 1 2.2.842v-.12a2.314 2.314 0 0 1 .056-.352l.657-3.887a.305.305 0 0 1 .305-.25H72.8a.333.333 0 0 1 .231.1.3.3 0 0 1 .065.25l-1.777 11.4a.305.305 0 0 1-.305.259h-2.475a.333.333 0 0 1-.231-.1.3.3 0 0 1-.065-.25v-.083a3.971 3.971 0 0 1-.629.389 3.415 3.415 0 0 1-1.546.315zm.926-7.9a3.23 3.23 0 0 0-2.545 1.157 4.415 4.415 0 0 0-.99 3.045A3.415 3.415 0 0 0 64.2 71.6a2.3 2.3 0 0 0 1.851.861 2.777 2.777 0 0 0 1.277-.287 3.276 3.276 0 0 0 1.1-.87.333.333 0 0 1 .361-.074.305.305 0 0 1 .176.324l-.093.611h1.851l1.684-10.773h-1.943l-.574 3.647a2.24 2.24 0 0 0 0 .305v.814a.324.324 0 0 1-.2.3.315.315 0 0 1-.342-.111 3.1 3.1 0 0 0-1.037-.926 2.619 2.619 0 0 0-1.268-.278zm.379 5.7a1.768 1.768 0 0 1-1.351-.537 1.786 1.786 0 0 1-.537-1.361 2.527 2.527 0 0 1 .6-1.694 1.99 1.99 0 0 1 1.592-.685 1.851 1.851 0 0 1 1.851 1.851 2.536 2.536 0 0 1-.6 1.7 1.934 1.934 0 0 1-1.509.75zm.259-3.7a1.379 1.379 0 0 0-1.083.481 1.953 1.953 0 0 0-.444 1.3 1.208 1.208 0 0 0 1.268 1.286 1.361 1.361 0 0 0 1.166-.454 1.944 1.944 0 0 0 .407-1.333 1.2 1.2 0 0 0-.352-.926 1.24 1.24 0 0 0-.916-.3z" transform="translate(-4.677 -2.811)"/>
            <path id="Path_11694" data-name="Path 11694" d="M65.907 72.88a2.934 2.934 0 0 1-2.342-1.074 4 4 0 0 1-.926-2.684 4.942 4.942 0 0 1 1.259-3.4 3.8 3.8 0 0 1 3-1.37 3.36 3.36 0 0 1 1.49.342 3.7 3.7 0 0 1 .722.509v-.13a.761.761 0 0 1 .056-.342l.648-4.156h3.193l-1.852 12.037h-3.147l.074-.444a4.527 4.527 0 0 1-.639.389 3.406 3.406 0 0 1-1.536.324zm.926-7.9a3.193 3.193 0 0 0-2.533 1.153 4.341 4.341 0 0 0-1.046 2.989A3.4 3.4 0 0 0 64 71.409a2.314 2.314 0 0 0 1.851.861 2.869 2.869 0 0 0 1.268-.287 3.526 3.526 0 0 0 1.111-.87l.694-.805-.259 1.666h1.851l1.712-10.783h-1.943l-.574 3.647v2.018l-.555-.7a3.2 3.2 0 0 0-1.027-.926 2.777 2.777 0 0 0-1.259-.25zm.389 5.7a1.851 1.851 0 0 1-1.851-1.851 2.573 2.573 0 0 1 .592-1.7 2.036 2.036 0 0 1 1.555-.694 1.851 1.851 0 0 1 1.342.518 1.8 1.8 0 0 1 .528 1.342A2.582 2.582 0 0 1 68.795 70a1.962 1.962 0 0 1-1.536.676zm.259-3.7a1.407 1.407 0 0 0-1.092.491 1.916 1.916 0 0 0-.444 1.3 1.222 1.222 0 0 0 1.277 1.286 1.361 1.361 0 0 0 1.074-.509 1.962 1.962 0 0 0 .444-1.314 1.148 1.148 0 0 0-.352-.926 1.185 1.185 0 0 0-.87-.305z" transform="translate(-4.664 -2.8)"/>
            <path id="Path_11695" data-name="Path 11695" d="M65.534 68.635a1.518 1.518 0 0 0 .444 1.148 1.5 1.5 0 0 0 1.138.444 1.657 1.657 0 0 0 1.305-.611 2.249 2.249 0 0 0 .528-1.509 1.49 1.49 0 0 0-.407-1.129 1.518 1.518 0 0 0-1.166-.444 1.722 1.722 0 0 0-1.314.592 2.231 2.231 0 0 0-.528 1.5zm6.951-7.895-1.777 11.393h-2.48l.148-.926a3.85 3.85 0 0 1-1.2.926 3.138 3.138 0 0 1-1.407.315 2.619 2.619 0 0 1-2.1-.926 3.7 3.7 0 0 1-.814-2.49 4.628 4.628 0 0 1 1.105-3.192 3.5 3.5 0 0 1 2.777-1.259 2.989 2.989 0 0 1 1.351.305 3.489 3.489 0 0 1 1.138.99v-.74a1.114 1.114 0 0 1 .074-.481l.611-3.915z" transform="translate(-4.68 -2.812)" style="fill:url(#linear-gradient-13)"/>
            <path id="Path_11696" data-name="Path 11696" class="cls-5" d="M65.791 72.109a2.3 2.3 0 0 1-1.851-.861 3.415 3.415 0 0 1-.74-2.286 4.35 4.35 0 0 1 1.037-2.989 3.221 3.221 0 0 1 2.48-1.12 2.628 2.628 0 0 1 1.212.278 3.193 3.193 0 0 1 1.037.926l.546.713v-1.14a3.583 3.583 0 0 1 0-.444 1.377 1.377 0 0 1 0-.157v-.3l.574-3.7h1.953L70.465 71.85h-1.851l.25-1.666-.694.805a3.6 3.6 0 0 1-1.1.87 2.777 2.777 0 0 1-1.279.25zm1.61-5.886a2.008 2.008 0 0 0-1.546.694 2.555 2.555 0 0 0-.6 1.7 1.851 1.851 0 0 0 .537 1.407 1.8 1.8 0 0 0 1.351.528 1.934 1.934 0 0 0 1.536-.722 2.582 2.582 0 0 0 .6-1.7 1.851 1.851 0 0 0-1.851-1.851z" transform="translate(-4.706 -2.833)"/>
            <path id="Path_11697" data-name="Path 11697" d="M65.554 71.849a2.231 2.231 0 0 1-1.851-.833 3.323 3.323 0 0 1-.7-2.249 4.313 4.313 0 0 1 1.018-2.943 3.147 3.147 0 0 1 2.5-1.129 2.693 2.693 0 0 1 1.194.268 3.249 3.249 0 0 1 1.009.926l.657.851v-1.786a.527.527 0 0 0 0-.148v-.287l.565-3.619h1.851l-1.671 10.662h-1.675l.278-1.851-.842.926a3.249 3.249 0 0 1-1.083.851 2.777 2.777 0 0 1-1.249.361zm1.61-5.877a2.082 2.082 0 0 0-1.592.713 2.61 2.61 0 0 0-.611 1.712 1.885 1.885 0 0 0 1.944 1.962 2.008 2.008 0 0 0 1.583-.74 2.619 2.619 0 0 0 .611-1.749 1.851 1.851 0 0 0-1.934-1.925z" transform="translate(-4.691 -2.824)" style="fill:url(#linear-gradient-14)"/>
            <g id="Group_8451" data-name="Group 8451" class="cls-2" transform="translate(67.29 61.145)">
                <path id="Path_11698" data-name="Path 11698" d="M78.263 75.641a5.553 5.553 0 0 1-4.026-1.441 5.239 5.239 0 0 1-1.527-3.952 5.812 5.812 0 0 1 6.016-6.025 5.387 5.387 0 0 1 4 1.564 5.488 5.488 0 0 1 1.543 4.013v.7a2.045 2.045 0 0 1-1.111 1.564 1.731 1.731 0 0 1-.407 1.851 5.831 5.831 0 0 1-2.073 1.3 7.4 7.4 0 0 1-2.415.426z" transform="translate(-72.704 -64.216)"/>
            </g>
            <path id="Path_11699" data-name="Path 11699" d="M78.031 74.8a5.322 5.322 0 0 1-3.859-1.388 4.952 4.952 0 0 1-1.462-3.785 5.553 5.553 0 0 1 5.822-5.785 5.118 5.118 0 0 1 3.832 1.5 5.192 5.192 0 0 1 1.481 3.841v.685a1.777 1.777 0 0 1-1.194 1.527 1.462 1.462 0 0 1 .2.759 1.527 1.527 0 0 1-.454 1.064 5.553 5.553 0 0 1-2.018 1.194 6.877 6.877 0 0 1-2.351.389z" transform="translate(-5.414 -3.042)"/>
            <path id="Path_11700" data-name="Path 11700" class="cls-3" d="M77.578 73.148a4.2 4.2 0 0 1-3.026-1.048 3.878 3.878 0 0 1-1.092-2.925 4.378 4.378 0 0 1 4.628-4.628A3.906 3.906 0 0 1 82.2 68.7V69.383a.361.361 0 0 1-.315.352h-5.34a1.12 1.12 0 0 0 .278.731 1.592 1.592 0 0 0 1.61.093 3.7 3.7 0 0 0 .842-.611.305.305 0 0 1 .426 0l1.416 1.5a.305.305 0 0 1 .093.213.324.324 0 0 1-.093.222 4.572 4.572 0 0 1-1.6.963 6.016 6.016 0 0 1-1.939.302zm.472-7.95a3.767 3.767 0 0 0-3.98 3.98 3.267 3.267 0 0 0 .93 2.48 3.61 3.61 0 0 0 2.6.926 5.211 5.211 0 0 0 1.749-.278 3.942 3.942 0 0 0 1.092-.676l-.926-1a3.915 3.915 0 0 1-.777.518 2.517 2.517 0 0 1-1.055.231 1.749 1.749 0 0 1-1.259-.454 1.851 1.851 0 0 1-.454-1.3v-.167a.305.305 0 0 1 .305-.305h5.294v-.426a3.425 3.425 0 0 0-.926-2.573 3.35 3.35 0 0 0-2.593-.954zm1.361 3.073H76.4a.333.333 0 0 1-.259-.139.315.315 0 0 1 0-.287 2.545 2.545 0 0 1 .75-1.092 1.851 1.851 0 0 1 1.166-.407 1.6 1.6 0 0 1 1.684 1.592.278.278 0 0 1-.083.231.3.3 0 0 1-.25.1zm-2.517-.611h2.156a.925.925 0 0 0-.259-.426 1.018 1.018 0 0 0-.759-.268 1.24 1.24 0 0 0-.777.268 1.49 1.49 0 0 0-.361.426z" transform="translate(-5.469 -3.095)"/>
            <path id="Path_11701" data-name="Path 11701" d="M77.417 72.991a4.211 4.211 0 0 1-3.036-1.055 3.85 3.85 0 0 1-1.092-2.925 4.378 4.378 0 0 1 4.628-4.581 4.026 4.026 0 0 1 2.98 1.129 4.091 4.091 0 0 1 1.129 3.008v1.027h-5.553a1.074 1.074 0 0 0 .268.731 1.555 1.555 0 0 0 1.61.093 3.35 3.35 0 0 0 .842-.6l.222-.2 1.851 1.851-.222.213a4.285 4.285 0 0 1-1.573.981 5.766 5.766 0 0 1-2.055.333zm.463-7.95a3.71 3.71 0 0 0-3.934 3.971 3.286 3.286 0 0 0 .926 2.48 3.637 3.637 0 0 0 2.61.926 5.5 5.5 0 0 0 1.749-.278 3.8 3.8 0 0 0 1.055-.7l-.99-.926a4.064 4.064 0 0 1-.768.509 2.379 2.379 0 0 1-1.055.231 1.712 1.712 0 0 1-1.259-.444 1.851 1.851 0 0 1-.416-1.342v-.472h5.553v-.426a3.462 3.462 0 0 0-.926-2.573 3.35 3.35 0 0 0-2.545-.953zm1.694 3.059H75.8l.157-.416a2.49 2.49 0 0 1 .768-1.092 1.851 1.851 0 0 1 2.342 0 1.638 1.638 0 0 1 .481 1.138zm-2.851-.611h2.157a.851.851 0 0 0-.25-.416 1 1 0 0 0-.759-.278 1.222 1.222 0 0 0-.787.278 1.629 1.629 0 0 0-.361.42z" transform="translate(-5.457 -3.086)"/>
            <path id="Path_11702" data-name="Path 11702" d="M79.109 67.658a1.4 1.4 0 0 0-.407-.926 1.379 1.379 0 0 0-.972-.352 1.536 1.536 0 0 0-.926.342 2.23 2.23 0 0 0-.657.926zm-3.184 1.5v.176a1.518 1.518 0 0 0 .361 1.074 1.425 1.425 0 0 0 1.046.37 2.092 2.092 0 0 0 .926-.213 3.646 3.646 0 0 0 .926-.657l1.425 1.435a4.174 4.174 0 0 1-1.472.926 5.553 5.553 0 0 1-1.851.3 3.878 3.878 0 0 1-2.777-.926 3.573 3.573 0 0 1-1-2.7 4.082 4.082 0 0 1 4.285-4.285 3.7 3.7 0 0 1 2.777 1.042 3.776 3.776 0 0 1 1.046 2.777V69.199z" transform="translate(-5.473 -3.102)" style="fill:url(#linear-gradient-15)"/>
            <path id="Path_11703" data-name="Path 11703" class="cls-5" d="M77.3 72.259a3.61 3.61 0 0 1-2.6-.879 3.276 3.276 0 0 1-.926-2.48 3.767 3.767 0 0 1 3.98-3.98 3.378 3.378 0 0 1 2.536.926 3.452 3.452 0 0 1 .926 2.582 4.1 4.1 0 0 1 0 .416h-5.558v.481a1.749 1.749 0 0 0 .454 1.286 1.7 1.7 0 0 0 1.259.463 2.388 2.388 0 0 0 1.055-.241 3.84 3.84 0 0 0 .777-.509l.981 1a3.989 3.989 0 0 1-1.12.629 5.211 5.211 0 0 1-1.768.305zm.454-6.192a1.851 1.851 0 0 0-1.166.407 2.545 2.545 0 0 0-.75 1.092l-.167.426h3.795v-.333a1.685 1.685 0 0 0-.509-1.157 1.629 1.629 0 0 0-1.2-.435z" transform="translate(-5.493 -3.122)"/>
            <path id="Path_11704" data-name="Path 11704" d="M77.059 71.959a3.536 3.536 0 0 1-2.554-.861 3.193 3.193 0 0 1-.926-2.434 3.7 3.7 0 0 1 3.915-3.915 3.3 3.3 0 0 1 2.49.926 3.369 3.369 0 0 1 .926 2.536v.361h-5.563v.537a1.851 1.851 0 0 0 .463 1.333 1.786 1.786 0 0 0 1.314.472 2.49 2.49 0 0 0 1.074-.231 4.091 4.091 0 0 0 .74-.491l.926.926a4.017 4.017 0 0 1-1.055.583 5.3 5.3 0 0 1-1.75.258zm.454-6.183a1.9 1.9 0 0 0-1.2.416 2.6 2.6 0 0 0-.768 1.12l-.194.5h3.939v-.4a1.74 1.74 0 0 0-.537-1.194 1.675 1.675 0 0 0-1.24-.444z" transform="translate(-5.478 -3.11)" style="fill:url(#linear-gradient-16)"/>
            <g id="Group_8452" data-name="Group 8452" class="cls-2" transform="translate(76.205 61.503)">
                <path id="Path_11705" data-name="Path 11705" d="M86.653 75.67H84.07a1.731 1.731 0 0 1-1.712-2.008l1.166-7.4a1.731 1.731 0 0 1 1.712-1.472h2.517a1.851 1.851 0 0 1 .555.093 4.276 4.276 0 0 1 1.546-.268h.246a2.72 2.72 0 0 1 .407 0 1.889 1.889 0 0 1 1.546 2.212l-.528 2.323a1.721 1.721 0 0 1-2.036 1.324l-.489-.08a3.562 3.562 0 0 0-.1.463l-.537 3.369a1.731 1.731 0 0 1-1.71 1.444z" transform="translate(-82.336 -64.602)"/>
            </g>
            <path id="Path_11706" data-name="Path 11706" d="M86.424 74.827h-2.545a1.481 1.481 0 0 1-1.148-.528 1.518 1.518 0 0 1-.342-1.212l1.166-7.4a1.509 1.509 0 0 1 1.49-1.268h2.508a1.647 1.647 0 0 1 .565.1 4.054 4.054 0 0 1 1.536-.287h.62a1.647 1.647 0 0 1 1.009.713 1.546 1.546 0 0 1 .287 1.175l-.518 2.332A1.5 1.5 0 0 1 89.3 69.57l-.555-.083c-.111 0-.231.157-.305.657l-.537 3.4a1.49 1.49 0 0 1-1.479 1.283z" transform="translate(-6.133 -3.072)"/>
            <path id="Path_11707" data-name="Path 11707" class="cls-3" d="M85.968 73.181h-2.582a.333.333 0 0 1-.231-.1.305.305 0 0 1-.065-.25l1.166-7.4a.315.315 0 0 1 .305-.259h2.508a.305.305 0 0 1 .231.1.333.333 0 0 1 .074.25v.093l.3-.213a2.777 2.777 0 0 1 1.5-.4 1.1 1.1 0 0 1 .231 0 .472.472 0 0 1 .176 0h.139a.278.278 0 0 1 .2.13.315.315 0 0 1 0 .241l-.435 2.406a.315.315 0 0 1-.361.241h-.083l-.333-.056h-.379a1.231 1.231 0 0 0-.926.37 2.369 2.369 0 0 0-.518 1.305l-.537 3.387a.315.315 0 0 1-.38.155zm-2.221-.611h1.962l.491-3.128a2.98 2.98 0 0 1 .685-1.666 1.962 1.962 0 0 1 1.851-.528h.164l.389-1.712h-.13a2.24 2.24 0 0 0-1.194.324 2.323 2.323 0 0 0-.814.926.3.3 0 0 1-.574-.176l.13-.926h-1.85z" transform="translate(-6.187 -3.128)"/>
            <path id="Path_11708" data-name="Path 11708" d="M86.062 73.019h-3.2l1.268-8.034h3.128l-.065.454a1.768 1.768 0 0 1 .3-.222A2.777 2.777 0 0 1 89 64.81h.454l.416.074-.657 2.934-.379-.056h-.287a1.852 1.852 0 0 0-.37 0 1.185 1.185 0 0 0-.926.379 2.379 2.379 0 0 0-.528 1.305zm-2.48-.629h1.953l.491-3.128a3.017 3.017 0 0 1 .666-1.62 1.944 1.944 0 0 1 1.851-.528h.167l.379-1.712h-.13a2.2 2.2 0 0 0-1.185.315 2.23 2.23 0 0 0-.814.926l-.87 1.851.416-2.915h-1.85z" transform="translate(-6.17 -3.115)"/>
            <path id="Path_11709" data-name="Path 11709" d="m83.08 72.571 1.175-7.4h2.508l-.185 1.259a2.573 2.573 0 0 1 .926-1.083A2.61 2.61 0 0 1 88.865 65h.5l-.528 2.332a3.174 3.174 0 0 0-.454-.083 2.88 2.88 0 0 0-.4 0 1.5 1.5 0 0 0-1.185.472 2.647 2.647 0 0 0-.6 1.462l-.537 3.387z" transform="translate(-6.186 -3.129)" style="fill:url(#linear-gradient-17)"/>
            <path id="Path_11710" data-name="Path 11710" class="cls-5" d="m83.47 72.292 1.074-6.8h1.9l-.139.926.583.176a2.3 2.3 0 0 1 .824-.926 2.24 2.24 0 0 1 1.185-.315h.13l-.389 1.712h-.198a2.915 2.915 0 0 0-.426 0 1.851 1.851 0 0 0-1.416.583 2.99 2.99 0 0 0-.676 1.62l-.491 3.128z" transform="translate(-6.215 -3.155)"/>
            <path id="Path_11711" data-name="Path 11711" d="m83.31 71.988 1.055-6.673h1.768l-.12.833.694.213a2.184 2.184 0 0 1 .805-.926 2.129 2.129 0 0 1 1.148-.305h.056l-.361 1.592h-.139a2.148 2.148 0 0 0-.426 0 1.851 1.851 0 0 0-1.472.6 2.989 2.989 0 0 0-.694 1.647l-.481 3.073z" transform="translate(-6.203 -3.139)" style="fill:url(#linear-gradient-18)"/>
            <g id="Group_8453" data-name="Group 8453" class="cls-2" transform="translate(82.491 61.535)">
                <path id="Path_11712" data-name="Path 11712" d="M93.989 76.079a7.645 7.645 0 0 1-2.11-.3 7.4 7.4 0 0 1-1.953-.926 1.74 1.74 0 0 1-.62-2.231l.861-1.768a1.379 1.379 0 0 1 .167-.278 3.619 3.619 0 0 1-.4-1.721 3.85 3.85 0 0 1 1.573-3.147 5.211 5.211 0 0 1 3.35-1.074 6.534 6.534 0 0 1 1.851.268 7.238 7.238 0 0 1 1.675.777 1.74 1.74 0 0 1 .657 2.194l-.777 1.6a3.582 3.582 0 0 1 .75 2.249 3.961 3.961 0 0 1-1.573 3.249 5.451 5.451 0 0 1-3.452 1.1z" transform="translate(-89.127 -64.637)"/>
            </g>
            <path id="Path_11713" data-name="Path 11713" d="M93.76 75.219a7.533 7.533 0 0 1-2.045-.287 7.053 7.053 0 0 1-1.851-.861 1.5 1.5 0 0 1-.546-1.925l.861-1.777a1.351 1.351 0 0 1 .25-.352 3.313 3.313 0 0 1-.491-1.768 3.7 3.7 0 0 1 1.481-2.962 5.007 5.007 0 0 1 3.147-1.018 6.007 6.007 0 0 1 1.851.259 6.313 6.313 0 0 1 1.629.74 1.518 1.518 0 0 1 .565 1.907l-.768 1.666v.065a3.332 3.332 0 0 1 .777 2.212 3.7 3.7 0 0 1-1.528 3.082 5.229 5.229 0 0 1-3.332 1.019zm-.388-3.202z" transform="translate(-6.639 -3.074)"/>
            <path id="Path_11714" data-name="Path 11714" class="cls-3" d="M93.3 73.57a6.153 6.153 0 0 1-1.7-.24 5.942 5.942 0 0 1-1.612-.722.305.305 0 0 1-.111-.389l.861-1.768a.315.315 0 0 1 .194-.167.305.305 0 0 1 .25 0 8.329 8.329 0 0 0 1.212.639 1.592 1.592 0 0 0 1.286 0 .213.213 0 0 0 .111-.185s-.157-.278-.926-.574l-.1.009-.37-.157a3.36 3.36 0 0 1-1.333-.926 2.036 2.036 0 0 1-.426-1.3 2.453 2.453 0 0 1 1.018-2.018A3.832 3.832 0 0 1 94.135 65a5.219 5.219 0 0 1 1.462.2 5.979 5.979 0 0 1 1.333.611.315.315 0 0 1 .12.389l-.777 1.675a.305.305 0 0 1-.454.12 4.479 4.479 0 0 0-.87-.491 1.851 1.851 0 0 0-.722-.139.639.639 0 0 0-.4.1c-.111.074-.111.13-.111.148s0 .139.565.342l.194.074.352.148a4.248 4.248 0 0 1 1.638 1.055 2.129 2.129 0 0 1 .491 1.435 2.555 2.555 0 0 1-1.009 2.119 4.137 4.137 0 0 1-2.647.777zm-2.721-1.333a4.9 4.9 0 0 0 1.185.5 5.368 5.368 0 0 0 1.536.222 3.471 3.471 0 0 0 2.221-.657 1.925 1.925 0 0 0 .777-1.629 1.6 1.6 0 0 0-.342-1.046 3.934 3.934 0 0 0-1.342-.861 1.245 1.245 0 0 1-.324-.139l-.2-.074c-.407-.157-.926-.426-.926-.926a.777.777 0 0 1 .379-.648 1.907 1.907 0 0 1 1.7 0 3.7 3.7 0 0 1 .685.352l.509-1.092a4.8 4.8 0 0 0-.926-.416 4.7 4.7 0 0 0-1.286-.176 3.2 3.2 0 0 0-2.092.639 1.851 1.851 0 0 0-.879 1.49 1.388 1.388 0 0 0 .305.926 2.721 2.721 0 0 0 1.1.74l.342.148.157.065c.851.342 1.268.713 1.268 1.138a.842.842 0 0 1-.37.694 2.092 2.092 0 0 1-1.851 0 7.477 7.477 0 0 1-1.027-.509z" transform="translate(-6.69 -3.129)"/>
            <path id="Path_11715" data-name="Path 11715" d="M93.136 73.4a6.136 6.136 0 0 1-3.295-.926l-.231-.148L90.748 70l.287.176a8.33 8.33 0 0 0 1.212.639 1.647 1.647 0 0 0 1.286 0 .213.213 0 0 0 .111-.194s-.148-.278-.926-.565L92.59 70l-.389-.167a3.3 3.3 0 0 1-1.333-.926 1.99 1.99 0 0 1-.426-1.3 2.462 2.462 0 0 1 1.01-2.007 3.841 3.841 0 0 1 2.471-.768 5.007 5.007 0 0 1 1.472.213 5.405 5.405 0 0 1 1.333.611l.222.139-1.037 2.249-.305-.2a4.526 4.526 0 0 0-.861-.5 1.962 1.962 0 0 0-.731-.13.639.639 0 0 0-.389.093c-.12.074-.12.13-.12.157s.056.139.565.333l.2.083.342.139a4.5 4.5 0 0 1 1.6 1.037 2.212 2.212 0 0 1 .528 1.49 2.536 2.536 0 0 1-1.018 2.119 4.054 4.054 0 0 1-2.591.74zm-2.776-1.333a5.322 5.322 0 0 0 1.185.509 5.766 5.766 0 0 0 1.546.213 3.5 3.5 0 0 0 2.212-.648 1.944 1.944 0 0 0 .833-1.6 1.564 1.564 0 0 0-.352-1.037 3.961 3.961 0 0 0-1.37-.87l-.324-.13-.2-.083c-.407-.157-.926-.426-.926-.926a.768.768 0 0 1 .37-.657 1.934 1.934 0 0 1 1.7 0 4.906 4.906 0 0 1 .694.352l.5-1.092a5.1 5.1 0 0 0-.926-.407 4.359 4.359 0 0 0-1.287-.185 3.239 3.239 0 0 0-2.092.639 1.851 1.851 0 0 0-.777 1.536 1.416 1.416 0 0 0 .3.926 2.777 2.777 0 0 0 1.111.74c.1.056.222.1.37.167h.12c.851.342 1.268.713 1.268 1.138a.8.8 0 0 1-.37.694 2.11 2.11 0 0 1-1.851 0 7.07 7.07 0 0 1-1.018-.518z" transform="translate(-6.673 -3.116)"/>
            <path id="Path_11716" data-name="Path 11716" d="m96.469 65.786-.769 1.675a4.48 4.48 0 0 0-.926-.528 2.212 2.212 0 0 0-.833-.157.926.926 0 0 0-.583.157.472.472 0 0 0-.241.4c0 .231.268.435.759.629l.537.213a4.174 4.174 0 0 1 1.49.926 1.851 1.851 0 0 1 .416 1.24 2.24 2.24 0 0 1-.926 1.851 3.7 3.7 0 0 1-2.406.722 5.8 5.8 0 0 1-1.62-.231A5.479 5.479 0 0 1 89.87 72l.861-1.768a8.875 8.875 0 0 0 1.259.657 2.666 2.666 0 0 0 .926.185 1 1 0 0 0 .629-.176.518.518 0 0 0 .241-.435c0-.278-.37-.574-1.083-.861l-.5-.213a2.98 2.98 0 0 1-1.222-.824 1.74 1.74 0 0 1-.37-1.12 2.138 2.138 0 0 1 .926-1.768 3.5 3.5 0 0 1 2.3-.676 4.628 4.628 0 0 1 1.37.194 4.841 4.841 0 0 1 1.259.574z" transform="translate(-6.692 -3.128)" style="fill:url(#linear-gradient-19)"/>
            <path id="Path_11717" data-name="Path 11717" class="cls-5" d="M93.031 72.668a5.442 5.442 0 0 1-2.721-.713l.639-1.222a7.99 7.99 0 0 0 1.018.509 3.045 3.045 0 0 0 1.064.2 1.3 1.3 0 0 0 .805-.231.814.814 0 0 0 .37-.685c0-.426-.416-.805-1.277-1.138l-.139-.065a3.111 3.111 0 0 1-.333-.148 2.777 2.777 0 0 1-1.12-.74 1.4 1.4 0 0 1-.305-.926 1.851 1.851 0 0 1 .731-1.564 3.249 3.249 0 0 1 2.1-.639 4.7 4.7 0 0 1 1.286.176 4.8 4.8 0 0 1 .926.416l-.5 1.129a4.933 4.933 0 0 0-.685-.361 2.564 2.564 0 0 0-.926-.176 1.222 1.222 0 0 0-.768.222.75.75 0 0 0-.361.639c0 .491.546.75.926.926l.194.074.315.13a3.887 3.887 0 0 1 1.388.926A1.536 1.536 0 0 1 96 70.446a1.925 1.925 0 0 1-.777 1.629 3.489 3.489 0 0 1-2.194.592z" transform="translate(-6.725 -3.152)"/>
            <path id="Path_11718" data-name="Path 11718" d="M92.788 72.417a5.554 5.554 0 0 1-1.518-.217 5.146 5.146 0 0 1-1.12-.472l.537-1.111a7.794 7.794 0 0 0 .972.481 3.165 3.165 0 0 0 1.083.213 1.416 1.416 0 0 0 .842-.241.926.926 0 0 0 .389-.74c0-.454-.426-.851-1.305-1.194l-.148-.065-.324-.139a2.841 2.841 0 0 1-1.1-.731 1.333 1.333 0 0 1-.287-.926 1.768 1.768 0 0 1 .759-1.472 3.119 3.119 0 0 1 2.055-.629 4.239 4.239 0 0 1 1.268.176 5.3 5.3 0 0 1 .926.37l-.454.981a4.629 4.629 0 0 0-.639-.324 2.629 2.629 0 0 0-.924-.177 1.287 1.287 0 0 0-.805.241.787.787 0 0 0-.379.685c0 .528.565.805.99.926l.194.074.324.13a3.952 3.952 0 0 1 1.361.861 1.5 1.5 0 0 1 .333 1 1.851 1.851 0 0 1-.759 1.583 3.425 3.425 0 0 1-2.268.722z" transform="translate(-6.713 -3.142)" style="fill:url(#linear-gradient-20)"/>
            <path id="Path_11719" data-name="Path 11719" d="M65.023 23.08c-9.255 1.509-18.585 4.887-18.788 13.809a18.326 18.326 0 0 0 2.776 9.711 21.463 21.463 0 0 0-4.23-2.545 21.2 21.2 0 0 0-12.661-1.918c.537.12 1.083.259 1.638.4A46.213 46.213 0 0 1 40.478 45a19.575 19.575 0 0 1 5.081 3.4c.657.648 1.62 1.786 1.453 2.777-.278 1.7-3.526 1.518-5.488 1.694 3.147 1.046 6.608 2.777 10.634 3.378a17.585 17.585 0 0 0 4.544.185c2.777-.268 5.285-2.073 4.868-5.165-.75-5.553-5.757-9.32-6.6-15.6-.926-7 4.063-10.82 9.653-12.365l.518-.2s.059-.033-.118-.024z" transform="translate(-2.392 -.007)"/>
            <path id="Path_11720" data-name="Path 11720" class="cls-3" d="M57.2 58.1c-4.859.555-8.894-1.481-12.458-2.666l-.555.056c3.7 1.148 7.9 3.387 13.022 2.841 2.3-.241 3.943-1.62 3.952-3.934-.108 2.178-1.737 3.465-3.961 3.703z" transform="translate(-3.29 -2.34)"/>
            <path id="Path_11721" data-name="Path 11721" d="M64.844 23c-8.987 1.055-18.178 3.934-18.779 12.689-.287 4.1 1.009 7.173 2.462 10.181A19.992 19.992 0 0 0 32.2 40.2c4.5 1.24 9.82 3.628 12.68 6.784.6.666 1.481 1.851 1.277 2.777-.352 1.666-3.48 1.333-5.387 1.416 3.943 1.536 8.33 4.313 13.957 4.137 2.777-.093 4.859-1.759 4.628-4.841-.4-5.553-4.628-10.3-5.016-16.567-.481-6.9 4.359-9.552 9.9-10.755a3.746 3.746 0 0 0 .74-.12c.046-.037 0-.056-.157-.056" transform="translate(-2.398)" style="fill:url(#linear-gradient-21)"/>
            <path id="Path_11722" data-name="Path 11722" class="cls-5" d="M57.719 26.272c.25-.2.518-.4.8-.592s.685-.435 1.027-.629c-5.97 1.62-10.82 4.729-11.245 10.875a15.077 15.077 0 0 0 .565 5.294 14.947 14.947 0 0 1-.417-4.692c.375-5.453 4.244-8.507 9.27-10.256z" transform="translate(-3.593 -.154)"/>
        </g>
    </g>
</svg>
